<svg width="44" height="44" viewBox="0 0 44 44" fill="none" xmlns="http://www.w3.org/2000/svg">
<g id="Frame">
<path id="Vector" d="M16.4993 9.16797H12.8327C11.8602 9.16797 10.9276 9.55428 10.24 10.2419C9.55232 10.9295 9.16602 11.8622 9.16602 12.8346V34.8346C9.16602 35.8071 9.55232 36.7397 10.24 37.4274C10.9276 38.115 11.8602 38.5013 12.8327 38.5013H31.166C32.1385 38.5013 33.0711 38.115 33.7587 37.4274C34.4464 36.7397 34.8327 35.8071 34.8327 34.8346V12.8346C34.8327 11.8622 34.4464 10.9295 33.7587 10.2419C33.0711 9.55428 32.1385 9.16797 31.166 9.16797H27.4993" stroke="#005999" stroke-width="2.5" stroke-linecap="round" stroke-linejoin="round"/>
<path id="Vector_2" d="M16.5 9.16667C16.5 8.19421 16.8863 7.26158 17.5739 6.57394C18.2616 5.88631 19.1942 5.5 20.1667 5.5H23.8333C24.8058 5.5 25.7384 5.88631 26.4261 6.57394C27.1137 7.26158 27.5 8.19421 27.5 9.16667C27.5 10.1391 27.1137 11.0718 26.4261 11.7594C25.7384 12.447 24.8058 12.8333 23.8333 12.8333H20.1667C19.1942 12.8333 18.2616 12.447 17.5739 11.7594C16.8863 11.0718 16.5 10.1391 16.5 9.16667Z" stroke="#005999" stroke-width="2.5" stroke-linecap="round" stroke-linejoin="round"/>
<path id="Vector_3" d="M16.5 22H27.5" stroke="#005999" stroke-width="2.5" stroke-linecap="round" stroke-linejoin="round"/>
<path id="Vector_4" d="M16.5 29.332H27.5" stroke="#005999" stroke-width="2.5" stroke-linecap="round" stroke-linejoin="round"/>
</g>
</svg>
