<svg width="44" height="44" viewBox="0 0 44 44" fill="none" xmlns="http://www.w3.org/2000/svg">
<g clip-path="url(#clip0_1451_15967)">
<path d="M36.5 7.33203C37.6046 7.33203 38.5 8.22746 38.5 9.33203V27.4987C38.5 27.9849 38.3068 28.4512 37.963 28.7951C37.6192 29.1389 37.1529 29.332 36.6667 29.332H7.33333C6.8471 29.332 6.38079 29.1389 6.03697 28.7951C5.69315 28.4512 5.5 27.9849 5.5 27.4987V9.16536C5.5 8.67913 5.69315 8.21282 6.03697 7.869C6.38079 7.52519 6.8471 7.33203 7.33333 7.33203H36.5Z" stroke="#005999" stroke-width="2.5" stroke-linecap="round" stroke-linejoin="round"/>
<path d="M12.833 36.668H31.1663" stroke="#005999" stroke-width="2.5" stroke-linecap="round" stroke-linejoin="round"/>
<path d="M16.5 29.332V36.6654" stroke="#005999" stroke-width="2.5" stroke-linecap="round" stroke-linejoin="round"/>
<path d="M27.5 29.332V36.6654" stroke="#005999" stroke-width="2.5" stroke-linecap="round" stroke-linejoin="round"/>
</g>
<defs>
<clipPath id="clip0_1451_15967">
<rect width="44" height="44" fill="white"/>
</clipPath>
</defs>
</svg>
