<svg width="260" height="136" viewBox="0 0 260 136" fill="none" xmlns="http://www.w3.org/2000/svg">
<path opacity="0.15" d="M259.435 1.02074C258.909 0.318029 258.093 -0.0597992 257.259 0.00773367L229.171 2.29473C227.768 2.40972 226.717 3.72388 226.824 5.23151C226.929 6.73913 228.157 7.86893 229.556 7.75394L249.576 6.12403L173.27 67.767L142.041 35.9115C141.112 34.9624 139.67 34.9058 138.677 35.7765L45.0411 117.873L-4.12393 67.5717C-5.01216 66.6627 -6.37932 66.5641 -7.37284 67.3362L-88.9454 130.737C-90.085 131.622 -90.3414 133.334 -89.516 134.559C-89.0184 135.3 -88.2389 135.692 -87.4492 135.692C-86.9312 135.692 -86.4098 135.524 -85.958 135.172L-6.10419 73.1057L43.1542 123.502C44.0832 124.453 45.5268 124.513 46.5203 123.64L140.16 41.5423L171.324 73.332C172.226 74.252 173.615 74.3377 174.608 73.5346L252.637 10.5009L247.166 30.1876C246.764 31.6369 247.53 33.1609 248.878 33.5935C249.121 33.672 249.367 33.7085 249.608 33.7085C250.706 33.7085 251.718 32.9401 252.049 31.7537L259.894 3.51945C260.133 2.65613 259.963 1.71979 259.437 1.01891L259.435 1.02074Z" fill="#CCCCCC"/>
</svg>
