<svg width="34" height="34" viewBox="0 0 34 34" fill="none" xmlns="http://www.w3.org/2000/svg">
<path d="M22.8509 4H6.81641V30H27.1837V8.33279L22.8509 4Z" fill="#E8E8E8"/>
<path d="M16.2085 18.2656H11.96V19.3689H16.2085V18.2656Z" fill="#91C554"/>
<path d="M21.1824 16.1523H11.96V17.2556H21.1824V16.1523Z" fill="#91C554"/>
<path d="M22.0406 14.0391H11.96V15.1423H22.0406V14.0391Z" fill="#91C554"/>
<path d="M24 12H12V13.1H24V12Z" fill="#91C554"/>
<path d="M13.6259 27.2934H12.2015L11.9731 28H11L12.3809 24H13.4573L14.8382 28H13.8542L13.6259 27.2934ZM13.3867 26.5413L12.9137 25.0769L12.4461 26.5413H13.3867Z" fill="#A4A9AD"/>
<path d="M18.1671 25.2877C18.1671 25.5195 18.1163 25.7322 18.0149 25.9259C17.9134 26.1159 17.7575 26.2697 17.5473 26.3875C17.3371 26.5052 17.0761 26.5641 16.7644 26.5641H16.1882V28H15.2585V24H16.7644C17.0689 24 17.3262 24.0551 17.5364 24.1652C17.7466 24.2754 17.9043 24.4274 18.0094 24.6211C18.1145 24.8148 18.1671 25.037 18.1671 25.2877ZM16.6938 25.7892C16.8714 25.7892 17.0036 25.7455 17.0906 25.6581C17.1776 25.5708 17.2211 25.4473 17.2211 25.2877C17.2211 25.1282 17.1776 25.0047 17.0906 24.9174C17.0036 24.83 16.8714 24.7863 16.6938 24.7863H16.1882V25.7892H16.6938Z" fill="#A4A9AD"/>
<path d="M20.8638 28L19.5807 26.2336V28H18.6511V24H19.5807V25.755L20.8529 24H21.9456L20.4669 25.9601L22 28H20.8638Z" fill="#A4A9AD"/>
<path d="M23.5214 6.16644H6.81641V4H22.8509L23.5214 6.16644Z" fill="#91C554"/>
<path d="M22.8511 8.33279H27.1839L22.8511 4V8.33279Z" fill="#D1D3D3"/>
</svg>
