<svg width="260" height="73" viewBox="0 0 260 73" fill="none" xmlns="http://www.w3.org/2000/svg">
<path opacity="0.15" d="M259.435 0.947826C258.909 0.295313 258.093 -0.0555279 257.259 0.00718126L229.171 2.13082C227.768 2.2376 226.717 3.45789 226.824 4.85783C226.929 6.25777 228.157 7.30686 229.556 7.20009L249.576 5.6866L173.27 62.9265L142.041 33.3464C141.112 32.4651 139.67 32.4126 138.677 33.221L45.0411 109.453L-4.12393 62.7451C-5.01216 61.9011 -6.37932 61.8096 -7.37284 62.5265L-88.9454 121.398C-90.085 122.22 -90.3414 123.81 -89.516 124.947C-89.0184 125.636 -88.2389 126 -87.4492 126C-86.9312 126 -86.4098 125.844 -85.958 125.517L-6.10419 67.8839L43.1542 114.68C44.0832 115.563 45.5268 115.619 46.5203 114.809L140.16 38.575L171.324 68.094C172.226 68.9482 173.615 69.0279 174.608 68.2822L252.637 9.75083L247.166 28.0314C246.764 29.3771 247.53 30.7923 248.878 31.194C249.121 31.2668 249.367 31.3007 249.608 31.3007C250.706 31.3007 251.718 30.5872 252.049 29.4856L259.894 3.26806C260.133 2.4664 259.963 1.59695 259.437 0.94613L259.435 0.947826Z" fill="#CCCCCC"/>
</svg>
