<svg width="34" height="34" viewBox="0 0 34 34" fill="none" xmlns="http://www.w3.org/2000/svg">
<path d="M22.8509 4H6.81641V30H27.1837V8.33279L22.8509 4Z" fill="#E8E8E8"/>
<path d="M16.2085 20.0977H11.96V21.2009H16.2085V20.0977Z" fill="#A4A9AD"/>
<path d="M21.1823 17.9844H11.96V19.0876H21.1823V17.9844Z" fill="#A4A9AD"/>
<path d="M21.1823 24H11.96V25.1032H21.1823V24Z" fill="#A4A9AD"/>
<path d="M22.0405 15.8711H11.96V16.9743H22.0405V15.8711Z" fill="#A4A9AD"/>
<path d="M22.0405 21.8867H11.96V22.99H22.0405V21.8867Z" fill="#A4A9AD"/>
<path d="M19.0098 13.7578H11.96V14.8611H19.0098V13.7578Z" fill="#A4A9AD"/>
<path d="M22.0405 11.6445H11.96V12.7478H22.0405V11.6445Z" fill="#A4A9AD"/>
<path d="M23.5214 6.16644H6.81641V4H22.8509L23.5214 6.16644Z" fill="#A4A9AD"/>
<path d="M22.8511 8.33279H27.1839L22.8511 4V8.33279Z" fill="#D1D3D3"/>
</svg>
