<svg width="350" height="132" viewBox="0 0 350 132" fill="none" xmlns="http://www.w3.org/2000/svg">
<path opacity="0.15" d="M349.435 1.07696C348.909 0.335546 348.093 -0.063093 347.259 0.00815963L319.171 2.42113C317.768 2.54245 316.717 3.92899 316.824 5.51966C316.929 7.11032 318.157 8.30235 319.556 8.18103L339.576 6.46134L263.27 71.4996L232.041 37.8895C231.112 36.8881 229.67 36.8284 228.677 37.747L135.041 124.365L85.8761 71.2935C84.9878 70.3345 83.6207 70.2305 82.6272 71.0451L1.05459 137.938C-0.0849874 138.872 -0.341436 140.678 0.483954 141.97C0.981565 142.752 1.7611 143.166 2.55082 143.166C3.06881 143.166 3.5902 142.989 4.04196 142.617L83.8958 77.1324L133.154 130.304C134.083 131.307 135.527 131.371 136.52 130.451L230.16 43.8304L261.324 77.3712C262.226 78.3417 263.615 78.4323 264.608 77.5849L342.637 11.0793L337.166 31.8504C336.764 33.3794 337.53 34.9874 338.878 35.4438C339.121 35.5266 339.367 35.5651 339.608 35.5651C340.706 35.5651 341.718 34.7544 342.049 33.5027L349.894 3.71331C350.133 2.80243 349.963 1.81452 349.437 1.07503L349.435 1.07696Z" fill="#CCCCCC"/>
</svg>
