<svg width="260" height="144" viewBox="0 0 260 144" fill="none" xmlns="http://www.w3.org/2000/svg">
<path opacity="0.15" d="M259.435 1.07696C258.909 0.335546 258.093 -0.063093 257.259 0.00815963L229.171 2.42113C227.768 2.54245 226.717 3.92899 226.824 5.51966C226.929 7.11032 228.157 8.30235 229.556 8.18103L249.576 6.46134L173.27 71.4996L142.041 37.8895C141.112 36.8881 139.67 36.8284 138.677 37.747L45.0411 124.365L-4.12393 71.2935C-5.01216 70.3345 -6.37932 70.2305 -7.37284 71.0451L-88.9454 137.938C-90.085 138.872 -90.3414 140.678 -89.516 141.97C-89.0184 142.752 -88.2389 143.166 -87.4492 143.166C-86.9312 143.166 -86.4098 142.989 -85.958 142.617L-6.10419 77.1324L43.1542 130.304C44.0832 131.307 45.5268 131.371 46.5203 130.451L140.16 43.8304L171.324 77.3712C172.226 78.3417 173.615 78.4323 174.608 77.5849L252.637 11.0793L247.166 31.8504C246.764 33.3794 247.53 34.9874 248.878 35.4438C249.121 35.5266 249.367 35.5651 249.608 35.5651C250.706 35.5651 251.718 34.7544 252.049 33.5027L259.894 3.71331C260.133 2.80243 259.963 1.81452 259.437 1.07503L259.435 1.07696Z" fill="#CCCCCC"/>
</svg>
