<svg width="34" height="34" viewBox="0 0 34 34" fill="none" xmlns="http://www.w3.org/2000/svg">
<path d="M22.8509 4H6.81641V30H27.1837V8.33279L22.8509 4Z" fill="#E8E8E8"/>
<path d="M22.0766 9.29297H11.7954V19.5742H22.0766V9.29297Z" fill="#38A3FF"/>
<path d="M19.8472 14.5238L17.8052 17.9695L14.4831 12.3633L11.7954 16.8987V19.5761H22.0766V18.286L19.8472 14.5238Z" fill="#007934"/>
<path d="M23.5214 6.16644H6.81641V4H22.8509L23.5214 6.16644Z" fill="#38A3FF"/>
<path d="M12.0882 28.7734C11.8856 28.7734 11.6933 28.7537 11.5112 28.7143V27.8503C11.5713 27.8615 11.6351 27.8742 11.7026 27.8883C11.7701 27.9024 11.8433 27.9094 11.9221 27.9094C12.1059 27.9094 12.2372 27.854 12.316 27.7434C12.3949 27.6326 12.4342 27.4432 12.4342 27.1749V23.3672H13.5514V27.0793C13.5514 27.6365 13.4295 28.0582 13.1856 28.3443C12.9419 28.6303 12.576 28.7734 12.0882 28.7734Z" fill="#A4A9AD"/>
<path d="M17.4264 24.6758C17.4264 25.1355 17.2908 25.4906 17.0198 25.741C16.7486 25.9915 16.3636 26.1167 15.8645 26.1167H15.5521V27.4816H14.4404V23.3672H15.8645C16.3842 23.3672 16.7744 23.4807 17.0352 23.7077C17.296 23.9347 17.4264 24.2574 17.4264 24.6758ZM15.5521 25.2105H15.7547C15.9218 25.2105 16.0544 25.1637 16.1529 25.0698C16.2515 24.976 16.3008 24.8465 16.3008 24.6814C16.3008 24.4037 16.1469 24.2649 15.8392 24.2649H15.5521V25.2105Z" fill="#A4A9AD"/>
<path d="M19.7346 25.0732H21.5104V27.2908C21.0282 27.4559 20.4982 27.5385 19.9204 27.5385C19.2862 27.5385 18.7961 27.3546 18.4499 26.9869C18.1038 26.6192 17.9307 26.0948 17.9307 25.4137C17.9307 24.7495 18.1202 24.2327 18.4991 23.863C18.8781 23.4935 19.4091 23.3086 20.092 23.3086C20.3509 23.3086 20.5953 23.333 20.8252 23.3817C21.055 23.4305 21.2553 23.4925 21.4261 23.5675L21.0743 24.44C20.7778 24.2936 20.4523 24.2204 20.0977 24.2204C19.7731 24.2204 19.5222 24.326 19.3449 24.537C19.1676 24.7481 19.0789 25.0498 19.0789 25.4418C19.0789 25.8265 19.1592 26.1197 19.3196 26.3214C19.48 26.523 19.7111 26.6239 20.0133 26.6239C20.1784 26.6239 20.3304 26.6079 20.4692 26.576V25.9316H19.7347L19.7346 25.0732Z" fill="#A4A9AD"/>
<path d="M22.8511 8.33279H27.1839L22.8511 4V8.33279Z" fill="#D1D3D3"/>
</svg>
