<svg width="34" height="34" viewBox="0 0 34 34" fill="none" xmlns="http://www.w3.org/2000/svg">
<path d="M22.8509 4H6.81641V30H27.1837V8.33279L22.8509 4Z" fill="#E4E4E4"/>
<path d="M23.5214 6.16644H6.81641V4H22.8509L23.5214 6.16644Z" fill="#FB9200"/>
<path d="M21.1833 11.5352H19.9468V16.9023H21.1833V11.5352Z" fill="#A4A9AD"/>
<path d="M21.4594 15.4453L19.6704 15.7689V16.3169L21.4594 15.9934V15.4453Z" fill="#D1D3D3"/>
<path d="M21.4594 14.3359L19.6704 14.6595V15.2076L21.4594 14.8841V14.3359Z" fill="#D1D3D3"/>
<path d="M21.4594 13.2266L19.6704 13.55V14.0981L21.4594 13.7746V13.2266Z" fill="#D1D3D3"/>
<path d="M21.4594 12.1172L19.6704 12.4407V12.9887L21.4594 12.6652V12.1172Z" fill="#D1D3D3"/>
<path d="M20.9758 17.293H20.1538V18.8402H20.9758V17.293Z" fill="#A4A9AD"/>
<path d="M19.6699 16.6875L18.0017 17.3161H12.9502L13.5546 18.3315H18.0017L19.6699 17.7028H21.4589V16.6875H19.6699Z" fill="#A4A9AD"/>
<path d="M19.6699 11.7533L18.0017 11.1247H12.9502L13.5546 10.1094H18.0017L19.6699 10.7379H21.4589V11.7533H19.6699Z" fill="#A4A9AD"/>
<path d="M17.785 11.125H11.6919V17.3141H17.785V11.125Z" fill="#FB9200"/>
<path d="M16.886 11.9062H12.5908V13.8639H16.886V11.9062Z" fill="#FF671B"/>
<path d="M15.4312 12.4727H14.0459V12.8116H15.4312V12.4727Z" fill="white"/>
<path d="M16.886 14.5781H12.5908V16.5357H16.886V14.5781Z" fill="#FF671B"/>
<path d="M15.4312 15.1445H14.0459V15.4836H15.4312V15.1445Z" fill="white"/>
<path d="M21.459 18.3281H19.6699V19.3435H21.459V18.3281Z" fill="#A4A9AD"/>
<path d="M12.4989 25.9883V27.4856H11.3872V23.3711H12.7353C13.8535 23.3711 14.4126 23.7764 14.4126 24.5868C14.4126 25.0635 14.1799 25.4321 13.7146 25.6929L14.9135 27.4856H13.6527L12.7802 25.9884L12.4989 25.9883ZM12.4989 25.1526H12.7072C13.0955 25.1526 13.2897 24.9809 13.2897 24.6375C13.2897 24.3543 13.0992 24.2125 12.7184 24.2125H12.4989V25.1526Z" fill="#A4A9AD"/>
<path d="M17.8128 27.4829L17.6103 26.7118H16.2734L16.0652 27.4829H14.8438L16.1863 23.3516H17.6694L19.0286 27.4829H17.8128ZM17.3795 25.8L17.2022 25.1246C17.161 24.9744 17.1108 24.7802 17.0516 24.5419C16.9926 24.3037 16.9536 24.133 16.9349 24.0297C16.918 24.1254 16.8846 24.283 16.8351 24.5025C16.7853 24.722 16.675 25.1545 16.5043 25.7999H17.3795V25.8Z" fill="#A4A9AD"/>
<path d="M20.5843 25.9883V27.4856H19.4727V23.3711H20.8207C21.9389 23.3711 22.498 23.7764 22.498 24.5868C22.498 25.0635 22.2654 25.4321 21.8001 25.6929L22.9989 27.4856H21.7381L20.8657 25.9884L20.5843 25.9883ZM20.5843 25.1526H20.7925C21.1809 25.1526 21.3751 24.9809 21.3751 24.6375C21.3751 24.3543 21.1847 24.2125 20.8038 24.2125H20.5843V25.1526Z" fill="#A4A9AD"/>
<path d="M22.8511 8.33279H27.1839L22.8511 4V8.33279Z" fill="#D1D3D3"/>
</svg>
