<svg width="34" height="34" viewBox="0 0 34 34" fill="none" xmlns="http://www.w3.org/2000/svg">
<path d="M22.8509 4H6.81641V30H27.1837V8.33279L22.8509 4Z" fill="#E8E8E8"/>
<path d="M16.2081 18.2656H11.9595V19.3689H16.2081V18.2656Z" fill="#D1D3D3"/>
<path d="M21.1819 16.1523H11.9595V17.2556H21.1819V16.1523Z" fill="#D1D3D3"/>
<path d="M22.0401 14.0391H11.9595V15.1423H22.0401V14.0391Z" fill="#D1D3D3"/>
<path d="M19.0093 11.9258H11.9595V13.029H19.0093V11.9258Z" fill="#D1D3D3"/>
<path d="M22.0401 9.8125H11.9595V10.9157H22.0401V9.8125Z" fill="#D1D3D3"/>
<path d="M13.7066 27.4856H12.595V24.2801H11.5903V23.3711H14.7085V24.2801H13.7066V27.4856Z" fill="#A4A9AD"/>
<path d="M19.0031 27.4856H17.717L16.915 26.1995L16.1212 27.4856H14.8633L16.2282 25.3806L14.9449 23.3711H16.1775L16.9205 24.6432L17.6353 23.3711H18.9046L17.6015 25.4677L19.0031 27.4856Z" fill="#A4A9AD"/>
<path d="M21.2799 27.4856H20.1683V24.2801H19.1636V23.3711H22.2817V24.2801H21.2798L21.2799 27.4856Z" fill="#A4A9AD"/>
<path d="M23.5214 6.16644H6.81641V4H22.8509L23.5214 6.16644Z" fill="#A4A9AD"/>
<path d="M22.8506 8.33279H27.1834L22.8506 4V8.33279Z" fill="#D1D3D3"/>
</svg>
