<svg width="169" height="76" viewBox="0 0 169 76" fill="none" xmlns="http://www.w3.org/2000/svg">
<path opacity="0.2" d="M168.435 0.947826C167.909 0.295313 167.093 -0.0555279 166.259 0.00718126L138.171 2.13082C136.768 2.2376 135.717 3.45789 135.824 4.85783C135.929 6.25777 137.157 7.30686 138.556 7.20009L158.576 5.6866L82.2702 62.9265L51.0413 33.3464C50.1123 32.4651 48.6704 32.4126 47.6769 33.221L-45.9589 109.453L-95.1239 62.7451C-96.0122 61.9011 -97.3793 61.8096 -98.3728 62.5265L-179.945 121.398C-181.085 122.22 -181.341 123.81 -180.516 124.947C-180.018 125.636 -179.239 126 -178.449 126C-177.931 126 -177.41 125.844 -176.958 125.517L-97.1042 67.8839L-47.8458 114.68C-46.9168 115.563 -45.4732 115.619 -44.4797 114.809L49.1595 38.575L80.3239 68.094C81.2257 68.9482 82.615 69.0279 83.6085 68.2822L161.637 9.75083L156.166 28.0314C155.764 29.3771 156.53 30.7923 157.878 31.194C158.121 31.2668 158.367 31.3007 158.608 31.3007C159.706 31.3007 160.718 30.5872 161.049 29.4856L168.894 3.26806C169.133 2.4664 168.963 1.59695 168.437 0.94613L168.435 0.947826Z" fill="#CCCCCC"/>
</svg>
