<svg width="350" height="117" viewBox="0 0 350 117" fill="none" xmlns="http://www.w3.org/2000/svg">
<path opacity="0.2" d="M0.564972 0.947826C1.09146 0.295313 1.90665 -0.0555279 2.74051 0.00718126L30.8292 2.13082C32.2321 2.2376 33.2833 3.45789 33.1763 4.85783C33.071 6.25777 31.8431 7.30686 30.4437 7.20009L10.4238 5.6866L86.7298 62.9265L117.959 33.3464C118.888 32.4651 120.33 32.4126 121.323 33.221L214.959 109.453L264.124 62.7451C265.012 61.9011 266.379 61.8096 267.373 62.5265L348.945 121.398C350.085 122.22 350.341 123.81 349.516 124.947C349.018 125.636 348.239 126 347.449 126C346.931 126 346.41 125.844 345.958 125.517L266.104 67.8839L216.846 114.68C215.917 115.563 214.473 115.619 213.48 114.809L119.84 38.575L88.6761 68.094C87.7743 68.9482 86.385 69.0279 85.3915 68.2822L7.36337 9.75083L12.8337 28.0314C13.2362 29.3771 12.4702 30.7923 11.1218 31.194C10.8789 31.2668 10.6327 31.3007 10.3915 31.3007C9.2944 31.3007 8.28217 30.5872 7.95099 29.4856L0.106415 3.26806C-0.133026 2.4664 0.0367737 1.59695 0.563263 0.94613L0.564972 0.947826Z" fill="#CCCCCC"/>
</svg>
