<svg width="350" height="121" viewBox="0 0 350 121" fill="none" xmlns="http://www.w3.org/2000/svg">
<path opacity="0.2" d="M349.435 0.947826C348.909 0.295313 348.093 -0.0555279 347.259 0.00718126L319.171 2.13082C317.768 2.2376 316.717 3.45789 316.824 4.85783C316.929 6.25777 318.157 7.30686 319.556 7.20009L339.576 5.6866L263.27 62.9265L232.041 33.3464C231.112 32.4651 229.67 32.4126 228.677 33.221L135.041 109.453L85.8761 62.7451C84.9878 61.9011 83.6207 61.8096 82.6272 62.5265L1.05459 121.398C-0.0849874 122.22 -0.341436 123.81 0.483954 124.947C0.981565 125.636 1.7611 126 2.55082 126C3.06881 126 3.5902 125.844 4.04196 125.517L83.8958 67.8839L133.154 114.68C134.083 115.563 135.527 115.619 136.52 114.809L230.16 38.575L261.324 68.094C262.226 68.9482 263.615 69.0279 264.608 68.2822L342.637 9.75083L337.166 28.0314C336.764 29.3771 337.53 30.7923 338.878 31.194C339.121 31.2668 339.367 31.3007 339.608 31.3007C340.706 31.3007 341.718 30.5872 342.049 29.4856L349.894 3.26806C350.133 2.4664 349.963 1.59695 349.437 0.94613L349.435 0.947826Z" fill="#CCCCCC"/>
</svg>
