<svg width="34" height="34" viewBox="0 0 34 34" fill="none" xmlns="http://www.w3.org/2000/svg">
<path d="M22.8509 4H6.81641V30H27.1837V8.33279L22.8509 4Z" fill="#E4E4E4"/>
<path d="M17.636 5.08203H16.3647V16.4842H17.636V5.08203Z" fill="#333E48"/>
<path d="M17.0003 15.5391C16.2931 15.5391 15.7197 17.2759 15.7197 17.9831C15.7197 18.6903 16.2931 19.2637 17.0003 19.2637C17.7075 19.2637 18.2809 18.6903 18.2809 17.9831C18.2809 17.2759 17.7075 15.5391 17.0003 15.5391ZM17.0003 18.5757C16.673 18.5757 16.4076 18.3104 16.4076 17.983C16.4076 17.6556 16.6729 17.3903 17.0003 17.3903C17.3276 17.3903 17.5931 17.6556 17.5931 17.983C17.5931 18.3104 17.3276 18.5757 17.0003 18.5757Z" fill="#A4A9AD"/>
<path d="M23.5214 6.16644H6.81641V4H22.8509L23.5214 6.16644Z" fill="#A4A9AD"/>
<path d="M15.7289 27.4856H12.5234V26.7989L14.3048 24.2689H12.5656V23.3711H15.6839V24.055L13.9025 26.5879H15.7289V27.4856Z" fill="#A4A9AD"/>
<path d="M16.3169 27.4856V23.3711H17.4341V27.4856H16.3169Z" fill="#A4A9AD"/>
<path d="M21.3097 24.6797C21.3097 25.1395 21.1742 25.4945 20.9031 25.7449C20.6319 25.9954 20.2469 26.1206 19.7478 26.1206H19.4354V27.4856H18.3237V23.3711H19.7477C20.2674 23.3711 20.6576 23.4846 20.9184 23.7116C21.1792 23.9386 21.3097 24.2613 21.3097 24.6797ZM19.4354 25.2144H19.6379C19.8049 25.2144 19.9376 25.1676 20.0361 25.0737C20.1346 24.9799 20.1839 24.8504 20.1839 24.6853C20.1839 24.4076 20.03 24.2688 19.7223 24.2688H19.4353L19.4354 25.2144Z" fill="#A4A9AD"/>
<path d="M22.8511 8.33279H27.1839L22.8511 4V8.33279Z" fill="#D1D3D3"/>
</svg>
