<svg width="106" height="38" viewBox="0 0 106 38" fill="none" xmlns="http://www.w3.org/2000/svg">
<rect x="0.825012" y="1.27734" width="104.45" height="36" rx="2.5" fill="#0C0D10"/>
<path d="M71.9659 18.5382V20.6574H70.704V22.0471H71.9659V26.7692C71.9659 28.3817 72.6588 29.0266 74.4022 29.0266C74.7085 29.0266 75.0003 28.9882 75.2556 28.9422V27.5678C75.0368 27.5908 74.8982 27.6062 74.6575 27.6062C73.877 27.6062 73.5341 27.2222 73.5341 26.3469V22.0471H75.2556V20.6574H73.5341V18.5382H71.9659Z" fill="white"/>
<path d="M79.6967 29.1418C82.0163 29.1418 83.4387 27.5063 83.4387 24.7959C83.4387 22.1009 82.009 20.4577 79.6967 20.4577C77.3771 20.4577 75.9474 22.1009 75.9474 24.7959C75.9474 27.5063 77.3698 29.1418 79.6967 29.1418ZM79.6967 27.6753C78.3326 27.6753 77.5667 26.6233 77.5667 24.7959C77.5667 22.9839 78.3326 21.9243 79.6967 21.9243C81.0534 21.9243 81.8266 22.9839 81.8266 24.7959C81.8266 26.6157 81.0534 27.6753 79.6967 27.6753Z" fill="white"/>
<path d="M84.6556 28.9806H86.2239V24.0435C86.2239 22.8687 87.0628 22.0778 88.2517 22.0778C88.5289 22.0778 88.9958 22.1316 89.127 22.1777V20.5499C88.9593 20.5038 88.6602 20.4808 88.4268 20.4808C87.391 20.4808 86.5084 21.0797 86.2823 21.9012H86.1656V20.619H84.6556V28.9806Z" fill="white"/>
<path d="M93.021 21.8628C94.1808 21.8628 94.9394 22.7151 94.9759 24.0281H90.964C91.0516 22.7228 91.8612 21.8628 93.021 21.8628ZM94.9686 26.7232C94.6768 27.3758 94.0277 27.7367 93.0794 27.7367C91.8248 27.7367 91.0151 26.8076 90.964 25.3411V25.2489H96.5734V24.6731C96.5734 22.0471 95.2385 20.4577 93.0283 20.4577C90.789 20.4577 89.3666 22.1546 89.3666 24.8266C89.3666 27.4987 90.7598 29.1418 93.0356 29.1418C94.8519 29.1418 96.1211 28.2204 96.4785 26.7232H94.9686Z" fill="white"/>
<path d="M61.6813 25.8928C61.8023 27.946 63.4278 29.2591 65.8471 29.2591C68.4327 29.2591 70.0506 27.8823 70.0506 25.6858C70.0506 23.9589 69.1283 23.0039 66.8904 22.4548L65.6883 22.1444C64.267 21.7943 63.6924 21.3247 63.6924 20.505C63.6924 19.4704 64.5845 18.794 65.9227 18.794C67.1928 18.794 68.0698 19.4545 68.2286 20.513H69.8768C69.7785 18.5791 68.1606 17.2183 65.9454 17.2183C63.5639 17.2183 61.9762 18.5791 61.9762 20.6244C61.9762 22.3115 62.8759 23.3143 64.8491 23.7997L66.2554 24.1579C67.6994 24.516 68.3344 25.0412 68.3344 25.9166C68.3344 26.9353 67.3365 27.6754 65.9756 27.6754C64.5165 27.6754 63.5034 26.983 63.3597 25.8928H61.6813Z" fill="white"/>
<path d="M45.4356 20.4808C44.356 20.4808 43.4224 21.049 42.941 22.0011H42.8242V20.619H41.3143V31.7601H42.8826V27.7137H43.0066C43.4224 28.5966 44.3196 29.1188 45.4502 29.1188C47.4561 29.1188 48.7326 27.4526 48.7326 24.7959C48.7326 22.1393 47.4561 20.4808 45.4356 20.4808ZM44.9907 27.6369C43.6777 27.6369 42.8534 26.5466 42.8534 24.8036C42.8534 23.053 43.6777 21.9627 44.9979 21.9627C46.3255 21.9627 47.1206 23.0299 47.1206 24.7959C47.1206 26.5696 46.3255 27.6369 44.9907 27.6369Z" fill="white"/>
<path d="M54.2203 20.4808C53.1407 20.4808 52.2071 21.049 51.7256 22.0011H51.6089V20.619H50.099V31.7601H51.6673V27.7137H51.7913C52.2071 28.5966 53.1043 29.1188 54.2349 29.1188C56.2408 29.1188 57.5173 27.4526 57.5173 24.7959C57.5173 22.1393 56.2408 20.4808 54.2203 20.4808ZM53.7753 27.6369C52.4624 27.6369 51.6381 26.5466 51.6381 24.8036C51.6381 23.053 52.4624 21.9627 53.7826 21.9627C55.1102 21.9627 55.9053 23.0299 55.9053 24.7959C55.9053 26.5696 55.1102 27.6369 53.7753 27.6369Z" fill="white"/>
<path d="M38.5006 28.9806H40.2999L36.361 17.4968H34.5389L30.6 28.9806H32.3389L33.3444 25.9325H37.5026L38.5006 28.9806ZM35.363 19.5819H35.4915L37.0717 24.4364H33.7753L35.363 19.5819Z" fill="white"/>
<path d="M31.6534 8.83508V14.3749H33.5536C35.1219 14.3749 36.03 13.3575 36.03 11.5877C36.03 9.84476 35.1146 8.83508 33.5536 8.83508H31.6534ZM32.4704 9.61826H33.4624C34.5529 9.61826 35.1985 10.3477 35.1985 11.5992C35.1985 12.87 34.5639 13.5917 33.4624 13.5917H32.4704V9.61826Z" fill="white"/>
<path d="M38.8113 14.4555C39.9711 14.4555 40.6823 13.6378 40.6823 12.2826C40.6823 10.9351 39.9675 10.1135 38.8113 10.1135C37.6516 10.1135 36.9367 10.9351 36.9367 12.2826C36.9367 13.6378 37.6479 14.4555 38.8113 14.4555ZM38.8113 13.7223C38.1293 13.7223 37.7464 13.1963 37.7464 12.2826C37.7464 11.3766 38.1293 10.8468 38.8113 10.8468C39.4897 10.8468 39.8763 11.3766 39.8763 12.2826C39.8763 13.1925 39.4897 13.7223 38.8113 13.7223Z" fill="white"/>
<path d="M46.7388 10.1941H45.9547L45.2471 13.3844H45.1851L44.3682 10.1941H43.6168L42.7999 13.3844H42.7415L42.0303 10.1941H41.2352L42.3294 14.3749H43.1354L43.9524 11.2959H44.0144L44.835 14.3749H45.6483L46.7388 10.1941Z" fill="white"/>
<path d="M47.6418 14.3749H48.426V11.9294C48.426 11.2768 48.7943 10.8698 49.3742 10.8698C49.9541 10.8698 50.2313 11.2038 50.2313 11.8757V14.3749H51.0155V11.6683C51.0155 10.674 50.5267 10.1135 49.6405 10.1135C49.0423 10.1135 48.6485 10.3938 48.4552 10.8583H48.3968V10.1941H47.6418V14.3749Z" fill="white"/>
<path d="M52.2504 14.3749H53.0345V8.5625H52.2504V14.3749Z" fill="white"/>
<path d="M55.9836 14.4555C57.1434 14.4555 57.8546 13.6378 57.8546 12.2826C57.8546 10.9351 57.1398 10.1135 55.9836 10.1135C54.8238 10.1135 54.109 10.9351 54.109 12.2826C54.109 13.6378 54.8202 14.4555 55.9836 14.4555ZM55.9836 13.7223C55.3016 13.7223 54.9186 13.1963 54.9186 12.2826C54.9186 11.3766 55.3016 10.8468 55.9836 10.8468C56.662 10.8468 57.0486 11.3766 57.0486 12.2826C57.0486 13.1925 56.662 13.7223 55.9836 13.7223Z" fill="white"/>
<path d="M60.191 13.7491C59.7643 13.7491 59.4543 13.5303 59.4543 13.1541C59.4543 12.7855 59.7023 12.5897 60.2493 12.5513L61.2195 12.4861V12.8354C61.2195 13.3537 60.7818 13.7491 60.191 13.7491ZM59.9904 14.444C60.5119 14.444 60.9459 14.206 61.183 13.7875H61.245V14.3749H62V11.5186C62 10.6356 61.4383 10.1135 60.4426 10.1135C59.5418 10.1135 58.8999 10.5742 58.8196 11.2921H59.5783C59.6658 10.9965 59.9685 10.8276 60.4062 10.8276C60.9423 10.8276 61.2195 11.0771 61.2195 11.5186V11.8795L60.1436 11.9448C59.1989 12.0062 58.6665 12.44 58.6665 13.1925C58.6665 13.9565 59.2245 14.444 59.9904 14.444Z" fill="white"/>
<path d="M64.6609 14.444C65.208 14.444 65.6712 14.1714 65.9083 13.7146H65.9703V14.3749H66.7216V8.5625H65.9374V10.8583H65.8791C65.6639 10.3976 65.2044 10.125 64.6609 10.125C63.658 10.125 63.0124 10.9619 63.0124 12.2826C63.0124 13.6071 63.6507 14.444 64.6609 14.444ZM64.8834 10.866C65.5399 10.866 65.952 11.415 65.952 12.2864C65.952 13.1618 65.5435 13.7031 64.8834 13.7031C64.2196 13.7031 63.8221 13.1694 63.8221 12.2826C63.8221 11.4034 64.2233 10.866 64.8834 10.866Z" fill="white"/>
<path d="M71.8064 14.4555C72.9662 14.4555 73.6774 13.6378 73.6774 12.2826C73.6774 10.9351 72.9626 10.1135 71.8064 10.1135C70.6466 10.1135 69.9318 10.9351 69.9318 12.2826C69.9318 13.6378 70.643 14.4555 71.8064 14.4555ZM71.8064 13.7223C71.1244 13.7223 70.7415 13.1963 70.7415 12.2826C70.7415 11.3766 71.1244 10.8468 71.8064 10.8468C72.4848 10.8468 72.8714 11.3766 72.8714 12.2826C72.8714 13.1925 72.4848 13.7223 71.8064 13.7223Z" fill="white"/>
<path d="M74.7154 14.3749H75.4995V11.9294C75.4995 11.2768 75.8679 10.8698 76.4478 10.8698C77.0277 10.8698 77.3049 11.2038 77.3049 11.8757V14.3749H78.089V11.6683C78.089 10.674 77.6003 10.1135 76.7141 10.1135C76.1159 10.1135 75.722 10.3938 75.5287 10.8583H75.4704V10.1941H74.7154V14.3749Z" fill="white"/>
<path d="M81.7004 9.15372V10.2133H81.0695V10.9082H81.7004V13.2693C81.7004 14.0755 82.0469 14.3979 82.9186 14.3979C83.0718 14.3979 83.2177 14.3788 83.3453 14.3557V13.6685C83.2359 13.68 83.1666 13.6877 83.0462 13.6877C82.656 13.6877 82.4846 13.4958 82.4846 13.0581V10.9082H83.3453V10.2133H82.4846V9.15372H81.7004Z" fill="white"/>
<path d="M84.3979 14.3749H85.182V11.9332C85.182 11.2998 85.5394 10.8736 86.1813 10.8736C86.7357 10.8736 87.0311 11.2115 87.0311 11.8795V14.3749H87.8153V11.676C87.8153 10.6817 87.2937 10.1173 86.4476 10.1173C85.8494 10.1173 85.43 10.3976 85.2367 10.866H85.1747V8.5625H84.3979V14.3749Z" fill="white"/>
<path d="M90.644 10.8161C91.2239 10.8161 91.6032 11.2422 91.6214 11.8987H89.6155C89.6593 11.246 90.0641 10.8161 90.644 10.8161ZM91.6178 13.2462C91.4719 13.5725 91.1473 13.753 90.6732 13.753C90.0459 13.753 89.641 13.2884 89.6155 12.5552V12.5091H92.4202V12.2212C92.4202 10.9082 91.7527 10.1135 90.6476 10.1135C89.528 10.1135 88.8168 10.9619 88.8168 12.298C88.8168 13.634 89.5134 14.4555 90.6513 14.4555C91.5594 14.4555 92.194 13.9948 92.3727 13.2462H91.6178Z" fill="white"/>
<path d="M22.0908 19.5556C22.1098 18.0007 22.9031 16.5294 24.1616 15.7149C23.3677 14.5214 22.0379 13.7646 20.6543 13.7191C19.1787 13.556 17.7482 14.6485 16.9962 14.6485C16.2297 14.6485 15.0719 13.7353 13.8252 13.7623C12.2002 13.8175 10.6853 14.7901 9.89465 16.2855C8.19515 19.3828 9.46283 23.9348 11.0908 26.4384C11.9053 27.6644 12.8573 29.0338 14.1028 28.9852C15.3217 28.932 15.7769 28.1671 17.2482 28.1671C18.7059 28.1671 19.133 28.9852 20.4038 28.9543C21.7117 28.932 22.5358 27.7229 23.3217 26.4854C23.907 25.6119 24.3573 24.6464 24.656 23.6248C23.119 22.9405 22.0925 21.3123 22.0908 19.5556Z" fill="white"/>
<path d="M19.6903 12.0726C20.4034 11.1714 20.7548 10.0132 20.6697 8.84375C19.5802 8.9642 18.5738 9.51232 17.851 10.3789C17.1443 11.2256 16.7765 12.3635 16.846 13.4882C17.9359 13.5 19.0073 12.9667 19.6903 12.0726Z" fill="white"/>
<rect x="0.825012" y="1.27734" width="104.45" height="36" rx="2.5" stroke="#A6A6A6"/>
</svg>
