<svg width="44" height="44" viewBox="0 0 44 44" fill="none" xmlns="http://www.w3.org/2000/svg">
<g clip-path="url(#clip0_483_461)">
<path d="M38.3937 23.8663C38.7811 20.4642 38.1006 17.0259 36.4464 14.0279C34.7922 11.0299 32.2463 8.62074 29.1616 7.13449C26.0769 5.64823 22.6062 5.15846 19.2307 5.73308C15.8552 6.30769 12.742 7.91822 10.3228 10.3414C7.9036 12.7646 6.29819 15.8804 5.72912 19.2569C5.16005 22.6333 5.65552 26.1032 7.14684 29.1855C8.63816 32.2677 11.0514 34.8097 14.0522 36.4589C17.0529 38.1082 20.4924 38.7831 23.8938 38.39" stroke="#005999" stroke-width="2.5" stroke-linecap="round" stroke-linejoin="round"/>
<path d="M22 12.8333V22L25.6667 25.6667" stroke="#005999" stroke-width="2.5" stroke-linecap="round" stroke-linejoin="round"/>
<path d="M39.4167 32.0834L30.25 32.0834" stroke="#005999" stroke-width="2.5" stroke-linecap="round" stroke-linejoin="round"/>
<path d="M39.4167 39.4168L30.25 39.4168" stroke="#005999" stroke-width="2.5" stroke-linecap="round" stroke-linejoin="round"/>
</g>
<defs>
<clipPath id="clip0_483_461">
<rect width="44" height="44" fill="white"/>
</clipPath>
</defs>
</svg>
