<svg width="44" height="44" viewBox="0 0 44 44" fill="none" xmlns="http://www.w3.org/2000/svg">
<path d="M16 26.5C16 30.0902 21.5958 33 28.5 33C35.4042 33 41 30.0902 41 26.5C41 22.9098 35.4042 20 28.5 20C21.5958 20 16 22.9098 16 26.5Z" stroke="#005999" stroke-width="2.5" stroke-linecap="round" stroke-linejoin="round"/>
<path d="M16 26V34.5714C16 38.12 21.5958 41 28.5 41C35.4042 41 41 38.12 41 34.5714V26" stroke="#005999" stroke-width="2.5" stroke-linecap="round" stroke-linejoin="round"/>
<path d="M3 9.5C3 11.8227 5.38333 13.9677 9.25 15.129C13.1167 16.2903 17.8833 16.2903 21.75 15.129C25.6167 13.9677 28 11.8227 28 9.5C28 7.17733 25.6167 5.03233 21.75 3.871C17.8833 2.70967 13.1167 2.70967 9.25 3.871C5.38333 5.03233 3 7.17733 3 9.5Z" stroke="#005999" stroke-width="2.5" stroke-linecap="round" stroke-linejoin="round"/>
<path d="M3 9V30.6667C3 32.5907 4.544 33.8083 7 35" stroke="#005999" stroke-width="2.5" stroke-linecap="round" stroke-linejoin="round"/>
<path d="M3 20C3 21.776 4.544 22.9 7 24" stroke="#005999" stroke-width="2.5" stroke-linecap="round" stroke-linejoin="round"/>
</svg>
