<svg width="44" height="44" viewBox="0 0 44 44" fill="none" xmlns="http://www.w3.org/2000/svg">
<path d="M3 22C3 24.4951 3.49145 26.9658 4.44629 29.271C5.40113 31.5762 6.80066 33.6707 8.56497 35.435C10.3293 37.1993 12.4238 38.5989 14.729 39.5537C17.0342 40.5086 19.5049 41 22 41C24.4951 41 26.9658 40.5086 29.271 39.5537C31.5762 38.5989 33.6707 37.1993 35.435 35.435C37.1993 33.6707 38.5989 31.5762 39.5537 29.271C40.5086 26.9658 41 24.4951 41 22C41 19.5049 40.5086 17.0342 39.5537 14.729C38.5989 12.4238 37.1993 10.3293 35.435 8.56497C33.6707 6.80066 31.5762 5.40113 29.271 4.44629C26.9658 3.49145 24.4951 3 22 3C19.5049 3 17.0342 3.49145 14.729 4.44629C12.4238 5.40113 10.3293 6.80066 8.56497 8.56497C6.80066 10.3293 5.40113 12.4238 4.44629 14.729C3.49145 17.0342 3 19.5049 3 22Z" stroke="#005999" stroke-width="2.5" stroke-linecap="round" stroke-linejoin="round"/>
<path d="M28 14H16H18C19.5913 14 21.1174 14.6673 22.2426 15.855C23.3679 17.0427 24 18.6536 24 20.3333C24 22.013 23.3679 23.6239 22.2426 24.8117C21.1174 25.9994 19.5913 26.6667 18 26.6667H16L22 33" stroke="#005999" stroke-width="2.5" stroke-linecap="round" stroke-linejoin="round"/>
<path d="M16 20H28" stroke="#005999" stroke-width="2.5" stroke-linecap="round" stroke-linejoin="round"/>
</svg>
