<svg width="44" height="44" viewBox="0 0 44 44" fill="none" xmlns="http://www.w3.org/2000/svg">
<path d="M16.5 34.8333C16.5 36.2083 16.115 37.51 15.4367 38.61C14.1717 40.7367 11.8433 42.1667 9.16668 42.1667C6.49001 42.1667 4.16168 40.7367 2.89668 38.61C2.21835 37.51 1.83334 36.2083 1.83334 34.8333C1.83334 30.7817 5.11501 27.5 9.16668 27.5C13.2183 27.5 16.5 30.7817 16.5 34.8333Z" stroke="#005999" stroke-width="2.5" stroke-miterlimit="10" stroke-linecap="round" stroke-linejoin="round"/>
<path d="M6.30927 34.8324L8.12427 36.6474L12.0293 33.0358" stroke="#005999" stroke-width="2.5" stroke-linecap="round" stroke-linejoin="round"/>
<path d="M32.5443 12.9249C32.1043 12.8516 31.6459 12.8333 31.1693 12.8333H12.8359C12.3226 12.8333 11.8276 12.8699 11.3509 12.9433C11.6076 12.4299 11.9743 11.9533 12.4143 11.5133L18.3726 5.53663C20.8843 3.04329 24.9543 3.04329 27.4659 5.53663L30.6743 8.78155C31.8476 9.93655 32.4709 11.4032 32.5443 12.9249Z" stroke="#005999" stroke-width="2.5" stroke-linecap="round" stroke-linejoin="round"/>
<path d="M40.3333 22V31.1667C40.3333 36.6667 36.6667 40.3334 31.1667 40.3334H13.9883C14.5567 39.8567 15.0517 39.27 15.4367 38.61C16.115 37.51 16.5 36.2084 16.5 34.8334C16.5 30.7817 13.2183 27.5 9.16666 27.5C6.96666 27.5 5.00499 28.4717 3.66666 29.9933V22C3.66666 17.0134 6.67332 13.53 11.3483 12.9434C11.825 12.87 12.32 12.8334 12.8333 12.8334H31.1667C31.6433 12.8334 32.1017 12.8517 32.5417 12.925C37.2717 13.475 40.3333 16.9767 40.3333 22Z" stroke="#005999" stroke-width="2.5" stroke-linecap="round" stroke-linejoin="round"/>
<path d="M40.3333 22.9166H34.8333C32.8167 22.9166 31.1667 24.5666 31.1667 26.5833C31.1667 28.6 32.8167 30.25 34.8333 30.25H40.3333" stroke="#005999" stroke-width="2.5" stroke-linecap="round" stroke-linejoin="round"/>
</svg>
