<svg width="34" height="34" viewBox="0 0 34 34" fill="none" xmlns="http://www.w3.org/2000/svg">
<path d="M22.8509 4H6.81641V30H27.1837V8.33279L22.8509 4Z" fill="#E8E8E8"/>
<path d="M22.0766 9.29297H11.7954V19.5742H22.0766V9.29297Z" fill="#004A94"/>
<path d="M21.1849 10.1836H12.6875V18.6808H21.1849V10.1836Z" fill="white"/>
<path d="M15.1522 16.1565L15.3105 15.7451L15.6824 14.8274L17.0076 11.7734H18.3367V14.9065C18.3367 15.3179 18.3024 15.7346 18.2339 16.1566C18.2602 16.0827 18.4356 15.6265 18.76 14.7878L19.9587 11.7735H21.4896L18.9776 17.557H17.154V15.1043C17.154 14.6956 17.1711 14.2683 17.2055 13.8226C17.1184 14.1734 16.9628 14.6336 16.7387 15.2032L15.7379 17.557H14.021L13.8271 11.7735H15.2907L15.2512 14.6732C15.2353 15.3772 15.2023 15.8717 15.1522 16.1565Z" fill="#004A94"/>
<path d="M23.5214 6.16644H6.81641V4H22.8509L23.5214 6.16644Z" fill="#004A94"/>
<path d="M14.5917 25.3411C14.5917 26.0277 14.4026 26.5568 14.0246 26.9283C13.6466 27.2998 13.1151 27.4856 12.4303 27.4856H11.0991V23.3711H12.5232C13.1836 23.3711 13.6934 23.5399 14.0527 23.8777C14.4119 24.2154 14.5917 24.7032 14.5917 25.3411ZM13.4378 25.3805C13.4378 25.0034 13.3632 24.7239 13.2141 24.5418C13.065 24.3599 12.8384 24.2689 12.5344 24.2689H12.2109V26.5737H12.4585C12.7962 26.5737 13.0439 26.4757 13.2014 26.2796C13.3589 26.0836 13.4378 25.7839 13.4378 25.3805Z" fill="#A4A9AD"/>
<path d="M19.1791 25.4248C19.1791 26.1171 19.0093 26.6434 18.6698 27.0036C18.3301 27.3639 17.833 27.544 17.1781 27.544C16.5328 27.544 16.0378 27.3629 15.6936 27.0009C15.3492 26.6388 15.1772 26.1115 15.1772 25.4192C15.1772 24.7344 15.3484 24.2115 15.6907 23.8503C16.0331 23.4892 16.5309 23.3086 17.1837 23.3086C17.8385 23.3086 18.3348 23.4877 18.6725 23.8461C19.0103 24.2044 19.1791 24.7306 19.1791 25.4248ZM16.348 25.4248C16.348 26.2202 16.6247 26.6181 17.1781 26.6181C17.4596 26.6181 17.6684 26.5215 17.8044 26.3282C17.9404 26.135 18.0084 25.8338 18.0084 25.4249C18.0084 25.014 17.9393 24.7105 17.8015 24.5144C17.6637 24.3184 17.4577 24.2203 17.1838 24.2203C16.6265 24.2203 16.348 24.6218 16.348 25.4248Z" fill="#A4A9AD"/>
<path d="M21.7541 24.2282C21.4896 24.2282 21.2832 24.3366 21.1349 24.5533C20.9867 24.77 20.9126 25.0688 20.9126 25.4497C20.9126 26.2414 21.2137 26.6373 21.816 26.6373C21.9979 26.6373 22.1743 26.612 22.3451 26.5613C22.5157 26.5106 22.6874 26.4497 22.86 26.3784V27.3184C22.5168 27.4703 22.1284 27.5463 21.695 27.5463C21.0739 27.5463 20.5978 27.3662 20.2667 27.0059C19.9356 26.6457 19.77 26.1251 19.77 25.444C19.77 25.0181 19.8502 24.6438 20.0106 24.3211C20.1711 23.9984 20.4019 23.7503 20.703 23.5768C21.0041 23.4033 21.3582 23.3164 21.7654 23.3164C22.2101 23.3164 22.635 23.4131 23.0402 23.6063L22.6997 24.4815C22.5477 24.4102 22.3958 24.3502 22.2438 24.3014C22.0918 24.2527 21.9287 24.2282 21.7541 24.2282Z" fill="#A4A9AD"/>
<path d="M22.8506 8.33279H27.1834L22.8506 4V8.33279Z" fill="#D1D3D3"/>
</svg>
