<svg width="44" height="44" viewBox="0 0 44 44" fill="none" xmlns="http://www.w3.org/2000/svg">
<g clip-path="url(#clip0_483_396)">
<path d="M14.6667 16.5H29.3333" stroke="#005999" stroke-width="2.5" stroke-linecap="round" stroke-linejoin="round"/>
<path d="M14.6667 23.8333H25.6667" stroke="#005999" stroke-width="2.5" stroke-linecap="round" stroke-linejoin="round"/>
<path d="M33 7.33333C34.4587 7.33333 35.8576 7.91279 36.8891 8.94424C37.9205 9.97569 38.5 11.3746 38.5 12.8333V27.5C38.5 28.9587 37.9205 30.3576 36.8891 31.3891C35.8576 32.4205 34.4587 33 33 33H23.8333L14.6667 38.5V33H11C9.54131 33 8.14236 32.4205 7.11091 31.3891C6.07946 30.3576 5.5 28.9587 5.5 27.5V12.8333C5.5 11.3746 6.07946 9.97569 7.11091 8.94424C8.14236 7.91279 9.54131 7.33333 11 7.33333H33Z" stroke="#005999" stroke-width="2.5" stroke-linecap="round" stroke-linejoin="round"/>
</g>
<defs>
<clipPath id="clip0_483_396">
<rect width="44" height="44" fill="white"/>
</clipPath>
</defs>
</svg>
