<svg width="34" height="34" viewBox="0 0 34 34" fill="none" xmlns="http://www.w3.org/2000/svg">
<path d="M22.745 4.23438H6.99951V29.7659H26.9998V8.48909L22.745 4.23438Z" fill="#E8E8E8"/>
<path d="M16.2217 18.2461H12.0498V19.3295H16.2217V18.2461Z" fill="#A4A9AD"/>
<path d="M21.1059 16.1719H12.0498V17.2552H21.1059V16.1719Z" fill="#A4A9AD"/>
<path d="M21.9487 14.0977H12.0498V15.181H21.9487V14.0977Z" fill="#A4A9AD"/>
<path d="M18.9726 12.0195H12.0498V13.1029H18.9726V12.0195Z" fill="#A4A9AD"/>
<path d="M21.9487 9.94531H12.0498V11.0287H21.9487V9.94531Z" fill="#A4A9AD"/>
<path d="M12 27V23H14.515V23.6973H12.7891V24.6504H14.3856V25.3477H12.7891V26.3027H14.5223V27H12Z" fill="#5153FF"/>
<path d="M15.8823 23L16.635 24.3633H16.6642L17.4205 23H18.3117L17.1726 25L18.3372 27H17.4296L16.6642 25.6348H16.635L15.8696 27H14.9656L16.1338 25L14.9875 23H15.8823Z" fill="#5153FF"/>
<path d="M18.811 27V23H21.326V23.6973H19.6002V24.6504H21.1966V25.3477H19.6002V26.3027H21.3333V27H18.811Z" fill="#5153FF"/>
<path d="M23.4035 6.36178H6.99951V4.23438H22.745L23.4035 6.36178Z" fill="#5153FF"/>
<path d="M22.7451 8.48909H26.9998L22.7451 4.23438V8.48909Z" fill="#D1D3D3"/>
</svg>
