<svg width="34" height="34" viewBox="0 0 34 34" fill="none" xmlns="http://www.w3.org/2000/svg">
<path d="M17 22.1991V22.2121M17 18.2993C17.5847 18.301 18.1529 18.1057 18.6129 17.7448C19.0728 17.3839 19.3977 16.8784 19.5351 16.3102C19.6724 15.7419 19.6142 15.1439 19.3698 14.6128C19.1254 14.0816 18.7091 13.6484 18.1882 13.3829C17.671 13.118 17.0794 13.0359 16.5097 13.1499C15.9399 13.2639 15.4254 13.5673 15.05 14.0108M13.2339 4H20.7661C21.2784 3.99994 21.7858 4.10082 22.2591 4.29688C22.7324 4.49294 23.1625 4.78033 23.5247 5.14264L28.856 10.4724C29.219 10.8349 29.5069 11.2656 29.7033 11.7396C29.8996 12.2136 30.0004 12.7217 30 13.2347V20.7666C30.0001 21.2789 29.8992 21.7862 29.7031 22.2595C29.507 22.7328 29.2196 23.1628 28.8573 23.525L23.5273 28.8561C23.165 29.2188 22.7348 29.5065 22.2612 29.7028C21.7877 29.8991 21.28 30.0001 20.7674 30H13.2339C12.7215 29.9999 12.2141 29.8988 11.7408 29.7025C11.2674 29.5062 10.8374 29.2186 10.4753 28.8561L5.144 23.5263C4.78113 23.1639 4.4933 22.7335 4.297 22.2597C4.10069 21.7859 3.99977 21.2781 4 20.7653V13.2334C3.99994 12.7211 4.10082 12.2138 4.29689 11.7405C4.49296 11.2672 4.78037 10.8372 5.1427 10.475L10.4727 5.14394C10.8353 4.78093 11.2659 4.49303 11.74 4.29673C12.214 4.10043 12.7221 3.9996 13.2352 4H13.2339Z" stroke="#005999" stroke-width="2.5" stroke-linecap="round" stroke-linejoin="round"/>
</svg>
