<svg width="34" height="34" viewBox="0 0 34 34" fill="none" xmlns="http://www.w3.org/2000/svg">
<path d="M15.9375 8.5L14.4349 6.99741C14.0364 6.59887 13.4959 6.375 12.9323 6.375H3.1875C2.60068 6.375 2.125 6.85068 2.125 7.4375V27.2708C2.125 27.4664 2.28356 27.625 2.47917 27.625H31.5208C31.7164 27.625 31.875 27.4664 31.875 27.2708V9.5625C31.875 8.97568 31.3993 8.5 30.8125 8.5H15.9375Z" fill="#FFB900"/>
<path d="M15.9375 8.5L14.4349 10.0026C14.0364 10.4011 13.4959 10.625 12.9323 10.625H2.125V27.2708C2.125 27.4664 2.28356 27.625 2.47917 27.625H31.5208C31.7164 27.625 31.875 27.4664 31.875 27.2708V9.5625C31.875 8.97568 31.3993 8.5 30.8125 8.5H15.9375Z" fill="#FFD75E"/>
<path d="M15.9375 8.5L14.4349 10.0026C14.0364 10.4011 13.4959 10.625 12.9323 10.625H2.125V27.2708C2.125 27.4664 2.28356 27.625 2.47917 27.625H31.5208C31.7164 27.625 31.875 27.4664 31.875 27.2708V9.5625C31.875 8.97568 31.3993 8.5 30.8125 8.5H15.9375Z" fill="url(#paint0_linear_744_9576)"/>
<path opacity="0.4" d="M2.125 10.625V10.9792H12.9627C13.6202 10.9792 14.2508 10.718 14.7157 10.253L16.4688 8.5H15.9375L14.4349 10.0026C14.0364 10.4011 13.4959 10.625 12.9323 10.625H2.125Z" fill="white"/>
<path d="M31.5208 27.6237H2.47917C2.28356 27.6237 2.125 27.4651 2.125 27.2695H31.875C31.875 27.4651 31.7164 27.6237 31.5208 27.6237Z" fill="#DA7B16"/>
<defs>
<linearGradient id="paint0_linear_744_9576" x1="17" y1="8.5" x2="17" y2="27.625" gradientUnits="userSpaceOnUse">
<stop stop-color="white" stop-opacity="0"/>
<stop offset="1" stop-color="#FFD75E" stop-opacity="0.3"/>
</linearGradient>
</defs>
</svg>
