<svg width="44" height="44" viewBox="0 0 44 44" fill="none" xmlns="http://www.w3.org/2000/svg">
<path d="M4 4V40H40" stroke="#005999" stroke-width="2.5" stroke-linecap="round" stroke-linejoin="round"/>
<path d="M12 28C12 29.0609 12.4214 30.0783 13.1716 30.8284C13.9217 31.5786 14.9391 32 16 32C17.0609 32 18.0783 31.5786 18.8284 30.8284C19.5786 30.0783 20 29.0609 20 28C20 26.9391 19.5786 25.9217 18.8284 25.1716C18.0783 24.4214 17.0609 24 16 24C14.9391 24 13.9217 24.4214 13.1716 25.1716C12.4214 25.9217 12 26.9391 12 28Z" stroke="#005999" stroke-width="2.5" stroke-linecap="round" stroke-linejoin="round"/>
<path d="M20 8C20 9.06087 20.4214 10.0783 21.1716 10.8284C21.9217 11.5786 22.9391 12 24 12C25.0609 12 26.0783 11.5786 26.8284 10.8284C27.5786 10.0783 28 9.06087 28 8C28 6.93913 27.5786 5.92172 26.8284 5.17157C26.0783 4.42143 25.0609 4 24 4C22.9391 4 21.9217 4.42143 21.1716 5.17157C20.4214 5.92172 20 6.93913 20 8Z" stroke="#005999" stroke-width="2.5" stroke-linecap="round" stroke-linejoin="round"/>
<path d="M30 22C30 23.0609 30.4214 24.0783 31.1716 24.8284C31.9217 25.5786 32.9391 26 34 26C35.0609 26 36.0783 25.5786 36.8284 24.8284C37.5786 24.0783 38 23.0609 38 22C38 20.9391 37.5786 19.9217 36.8284 19.1716C36.0783 18.4214 35.0609 18 34 18C32.9391 18 31.9217 18.4214 31.1716 19.1716C30.4214 19.9217 30 20.9391 30 22Z" stroke="#005999" stroke-width="2.5" stroke-linecap="round" stroke-linejoin="round"/>
<path d="M40 4L28 7" stroke="#005999" stroke-width="2.5" stroke-linecap="round" stroke-linejoin="round"/>
<path d="M26 11L32 19" stroke="#005999" stroke-width="2.5" stroke-linecap="round" stroke-linejoin="round"/>
<path d="M30 23L20 27" stroke="#005999" stroke-width="2.5" stroke-linecap="round" stroke-linejoin="round"/>
</svg>
