<svg width="44" height="44" viewBox="0 0 44 44" fill="none" xmlns="http://www.w3.org/2000/svg">
<g clip-path="url(#clip0_626_3160)">
<path d="M16.5 20.168C16.5 21.6267 17.0795 23.0256 18.1109 24.0571C19.1424 25.0885 20.5413 25.668 22 25.668C23.4587 25.668 24.8576 25.0885 25.8891 24.0571C26.9205 23.0256 27.5 21.6267 27.5 20.168C27.5 18.7093 26.9205 17.3103 25.8891 16.2789C24.8576 15.2474 23.4587 14.668 22 14.668C20.5413 14.668 19.1424 15.2474 18.1109 16.2789C17.0795 17.3103 16.5 18.7093 16.5 20.168Z" stroke="#005999" stroke-width="2.5" stroke-linecap="round" stroke-linejoin="round"/>
<path d="M32.3708 30.5373L24.592 38.3161C23.9045 39.003 22.9724 39.3888 22.0006 39.3888C21.0288 39.3888 20.0967 39.003 19.4092 38.3161L11.6285 30.5373C9.57742 28.4861 8.18063 25.8728 7.61477 23.0277C7.04892 20.1827 7.33941 17.2337 8.44952 14.5538C9.55963 11.8739 11.4395 9.58329 13.8514 7.97173C16.2633 6.36017 19.0989 5.5 21.9997 5.5C24.9004 5.5 27.7361 6.36017 30.148 7.97173C32.5599 9.58329 34.4397 11.8739 35.5498 14.5538C36.66 17.2337 36.9504 20.1827 36.3846 23.0277C35.8187 25.8728 34.4219 28.4861 32.3708 30.5373Z" stroke="#005999" stroke-width="2.5" stroke-linecap="round" stroke-linejoin="round"/>
</g>
<defs>
<clipPath id="clip0_626_3160">
<rect width="44" height="44" fill="white"/>
</clipPath>
</defs>
</svg>
