<svg width="64" height="64" viewBox="0 0 64 64" fill="none" xmlns="http://www.w3.org/2000/svg">
<path fill-rule="evenodd" clip-rule="evenodd" d="M8.34648 26.2345C11.508 23.2892 15.168 20.6733 19.4324 18.4446C21.9499 17.1292 26.6347 15.4066 29.9588 15.1637L31.0803 15.0211C31.4537 15.0131 30.8786 14.9738 31.2559 15.0286C31.4812 15.0613 31.3596 15.0418 31.4764 15.109C31.4232 15.1434 25.9254 16.7649 23.942 17.6282C23.6675 17.7474 23.6571 17.7672 23.4165 17.9063L21.1626 19.0408C20.96 19.1754 20.9042 19.2156 20.6681 19.3388C14.6421 22.4842 10.0157 27.2373 5.85812 31.4407C5.74484 31.5263 5.64244 31.5789 5.51434 31.642C5.69429 33.6742 15.4835 42.1277 17.2804 43.6843C18.8019 45.028 21.3722 46.392 23.2253 47.4439C23.2789 47.4739 23.3255 47.5026 23.3808 47.5317L24.6056 48.1504C24.8156 48.2109 24.6967 48.1424 24.9433 48.2427C25.4993 48.4692 25.0954 48.4175 26.1515 48.7527C26.4944 48.8613 26.3633 48.89 26.9149 48.9854C27.0639 49.0812 27.0391 49.0124 27.436 49.1585C27.6295 49.2296 27.3698 49.1775 27.7602 49.2601C27.856 49.2804 27.9488 49.2936 28.0639 49.3007C28.1972 49.4274 28.0695 49.3784 28.4377 49.4928C29.4094 49.7953 29.3484 49.6253 29.8303 49.8659C29.5427 49.9644 27.4072 49.5193 26.9611 49.4098C26.4953 49.2954 26.9807 49.3475 26.538 49.2627C18.0891 46.9475 13.9524 43.3867 9.0506 38.8848C8.74081 38.6927 7.61753 37.4426 7.16962 37.0015L6.23632 35.988C5.91128 35.7279 5.85071 35.5063 5.61674 35.2758L4.53136 34.0009C4.34488 33.7484 3.02816 32.0059 3.00288 31.8182C2.96541 31.5387 3.30353 31.4526 3.40636 31.3727C5.05336 29.4527 6.42629 27.9734 8.34561 26.2349L8.34648 26.2345Z" fill="#FF1537"/>
<path fill-rule="evenodd" clip-rule="evenodd" d="M11.8226 27.1154C14.5354 24.5882 17.6755 22.3432 21.3347 20.4312C23.495 19.3025 27.5144 17.8246 30.3666 17.6162L31.3291 17.4938C31.6493 17.4868 31.1561 17.4532 31.4799 17.5C31.6733 17.5278 31.5687 17.5111 31.6694 17.5689C31.6236 17.5985 26.9062 18.9899 25.2047 19.7304C24.9694 19.8329 24.9603 19.8497 24.7537 19.9693L22.8196 20.943C22.6457 21.0582 22.5978 21.0927 22.3952 21.1987C17.2246 23.8976 13.2552 27.976 9.68759 31.5828C9.59043 31.6565 9.50241 31.7011 9.39305 31.7554C9.54729 33.4992 17.9466 40.7526 19.4886 42.0883C20.794 43.2413 22.9995 44.4119 24.5899 45.3145C24.6357 45.3401 24.6753 45.3648 24.7232 45.39L25.7742 45.9208C25.9541 45.9725 25.8526 45.9142 26.0639 46.0003C26.5406 46.1946 26.1942 46.1504 27.1005 46.4379C27.395 46.5311 27.2822 46.5558 27.7558 46.6375C27.8839 46.7196 27.8625 46.6604 28.2033 46.7858C28.3693 46.8472 28.1462 46.8022 28.4817 46.8728C28.5641 46.8905 28.6434 46.9015 28.7423 46.9077C28.8569 47.0163 28.747 46.9744 29.0634 47.0729C29.8969 47.3325 29.8446 47.1864 30.2581 47.393C30.0111 47.4778 28.1789 47.0954 27.7959 47.0018C27.3963 46.9037 27.8129 46.9488 27.4329 46.8755C20.184 44.8888 16.6342 41.8336 12.4278 37.9706C12.1625 37.8055 11.1987 36.7329 10.8139 36.3545L10.0131 35.485C9.73421 35.2616 9.68193 35.0717 9.4815 34.8739L8.55039 33.7796C8.39004 33.5628 7.26023 32.0681 7.23888 31.9069C7.20664 31.6671 7.49639 31.5934 7.58484 31.5249C8.99786 29.8774 10.176 28.6079 11.823 27.1167L11.8226 27.1154Z" fill="#005794"/>
<path fill-rule="evenodd" clip-rule="evenodd" d="M34.4088 28.5758L37.5525 28.4504L33.1648 31.541L32.7422 30.5298L34.4088 28.5758Z" fill="#005794"/>
<path fill-rule="evenodd" clip-rule="evenodd" d="M37.8631 35.6613L44.8546 37.1252C44.8546 37.1252 40.8077 38.9604 39.1689 39.2266C37.5302 39.4933 35.2771 38.9935 34.4833 38.3046C33.6894 37.6162 33.8689 36.9384 33.8689 36.9384L37.8631 35.6609V35.6613Z" fill="#005794"/>
<path fill-rule="evenodd" clip-rule="evenodd" d="M22.1168 39.8492L28.5689 22.9434L33.4158 21.4023L24.515 42.1852L22.1168 39.8492Z" fill="#005794"/>
<path fill-rule="evenodd" clip-rule="evenodd" d="M24.515 42.1852C24.9834 41.8474 24.8527 41.9622 25.3054 41.544C25.3455 41.5069 25.8766 40.9779 25.9629 40.8843C27.4657 39.2518 28.0931 37.5831 30.0007 36.1745C31.1374 38.0295 30.8098 38.5974 32.4633 39.8272C36.6113 42.9134 41.9806 39.2668 44.855 37.1256C41.9187 37.7911 37.393 40.4816 34.8689 38.0013C31.1143 34.3119 37.1154 32.4767 38.9223 31.4673L37.542 28.4266L33.0947 31.1701C33.9735 28.6085 39.85 21.3543 33.4167 21.4028C31.9217 23.4699 30.0399 28.8571 28.8948 31.6055C27.47 35.0255 25.6627 38.6389 24.5159 42.1852H24.515Z" fill="#FF1537"/>
<path fill-rule="evenodd" clip-rule="evenodd" d="M55.0194 38.6458C51.8578 41.5911 48.1978 44.207 43.9335 46.4357C41.4159 47.7511 36.7316 49.4737 33.4071 49.7166L32.2855 49.8592C31.9121 49.8671 32.4868 49.906 32.1095 49.8517C31.8842 49.819 32.0058 49.8384 31.889 49.7713C31.9422 49.7369 37.4405 48.1154 39.4234 47.2521C39.6979 47.1329 39.7084 47.113 39.9489 46.9739L42.2028 45.8395C42.4055 45.7048 42.4612 45.6647 42.6974 45.5415C48.7233 42.3961 53.3493 37.6425 57.5069 33.4396C57.6202 33.3539 57.7226 33.3014 57.8507 33.2382C57.6707 31.2061 47.8819 22.7526 46.0846 21.196C44.5631 19.8523 41.9928 18.4882 40.1397 17.4364C40.0861 17.4064 40.04 17.3777 39.9842 17.3485L38.7594 16.7299C38.5494 16.6694 38.6683 16.7378 38.4217 16.6376C37.8657 16.4111 38.2696 16.4627 37.2135 16.1276C36.8701 16.0189 37.0017 15.9902 36.4497 15.8944C36.3006 15.7986 36.3255 15.8675 35.9285 15.7218C35.7351 15.6507 35.9948 15.7028 35.6044 15.6202C35.5085 15.5999 35.4157 15.5866 35.3011 15.5796C35.1674 15.4528 35.2955 15.5019 34.9273 15.3875C33.9556 15.085 34.0166 15.255 33.5347 15.0144C33.8223 14.9159 35.9577 15.361 36.4039 15.4705C36.8697 15.5849 36.3843 15.5328 36.827 15.6176C45.2759 17.9327 49.4126 21.4936 54.3148 25.9955C54.6242 26.1876 55.7474 27.4377 56.1954 27.8788L57.1287 28.8922C57.4537 29.1523 57.5147 29.374 57.7483 29.6045L58.8336 30.8793C59.0201 31.1319 60.3368 32.8744 60.3621 33.0621C60.3996 33.3416 60.0619 33.4277 59.9586 33.5076C58.3116 35.4276 56.9387 36.9069 55.0194 38.6454V38.6458Z" fill="#005794"/>
<path fill-rule="evenodd" clip-rule="evenodd" d="M51.5432 37.765C48.8305 40.2921 45.6903 42.5367 42.0312 44.4487C39.8713 45.5774 35.8514 47.0558 32.9992 47.2642L32.0367 47.3865C31.7165 47.3936 32.2097 47.4267 31.886 47.3803C31.6925 47.3525 31.7971 47.3688 31.6969 47.3114C31.7426 47.2819 36.4597 45.8904 38.1616 45.1499C38.3969 45.0475 38.406 45.0307 38.6126 44.911L40.5467 43.9374C40.7205 43.8221 40.7685 43.7872 40.9711 43.6817C46.1417 40.9828 50.1111 36.9044 53.6782 33.2976C53.7754 33.2238 53.8634 33.1792 53.9732 33.1249C53.819 31.3811 45.4197 24.1278 43.8773 22.792C42.5719 21.639 40.3663 20.4684 38.7764 19.5658C38.7302 19.5402 38.6905 19.5155 38.6426 19.4903L37.5917 18.9596C37.4117 18.9074 37.5132 18.9662 37.3019 18.8801C36.8248 18.6858 37.1716 18.7299 36.2649 18.4425C35.9704 18.3493 36.0832 18.3246 35.6096 18.2429C35.4819 18.1607 35.5029 18.2199 35.1621 18.0945C34.9961 18.0336 35.2192 18.0786 34.8841 18.0075C34.8018 17.9903 34.7221 17.9788 34.6236 17.9731C34.509 17.8644 34.6188 17.9064 34.3029 17.8079C33.4694 17.5483 33.5217 17.6944 33.1082 17.4878C33.3552 17.403 35.1874 17.785 35.5704 17.879C35.9699 17.977 35.5534 17.932 35.9334 18.0053C43.1828 19.992 46.7321 23.0468 50.9385 26.9101C51.2043 27.0753 52.1681 28.1479 52.5524 28.5263L53.3532 29.3958C53.6321 29.6192 53.6844 29.8091 53.8848 30.0069L54.8159 31.1012C54.9763 31.318 56.106 32.8127 56.1274 32.9739C56.1596 33.2137 55.8695 33.2874 55.7814 33.3558C54.3684 35.0034 53.1902 36.2729 51.5432 37.7641V37.765Z" fill="#FF1537"/>
</svg>
