<svg width="197" height="54" viewBox="0 0 197 54" fill="none" xmlns="http://www.w3.org/2000/svg">
<g clip-path="url(#clip0_283_17936)">
<path d="M40.9697 19.9416V1.68947H47.0165V9.31418L50.3066 1.68947H56.4794L52.0351 10.1161L56.6001 19.9421H50.0853L47.0165 11.6395V19.9421H40.9697V19.9416ZM62.1428 13.5418C62.1428 14.4506 62.2535 15.1333 62.4752 15.5938C62.697 16.0504 63.0295 16.2809 63.473 16.2809C63.9166 16.2809 64.2543 16.0465 64.4856 15.5727C64.7174 15.1033 64.8333 14.425 64.8333 13.5418C64.8333 12.6415 64.7174 11.9548 64.4856 11.4854C64.2543 11.012 63.9166 10.7771 63.473 10.7771C63.0395 10.7771 62.7123 11.0116 62.4853 11.477C62.2587 11.9464 62.1428 12.6335 62.1428 13.5418ZM64.954 19.9416V18.5294C64.415 19.1437 63.856 19.5919 63.2761 19.8776C62.7018 20.1593 62.0718 20.3002 61.3969 20.3002C59.8897 20.3002 58.7107 19.7071 57.8593 18.5211C57.0079 17.335 56.5796 15.6751 56.5796 13.5418C56.5796 11.3918 57.0027 9.72794 57.8445 8.55025C58.6858 7.37257 59.8697 6.78395 61.3969 6.78395C62.0818 6.78395 62.7118 6.92481 63.2861 7.20212C63.8556 7.47943 64.415 7.92321 64.954 8.52906V7.14251H70.4262V19.9421H64.954V19.9416ZM72.4265 19.9416V7.14207H77.6869V9.04085C78.201 8.31534 78.8006 7.77794 79.4912 7.43218C80.1761 7.08643 80.9927 6.912 81.9247 6.912C83.0684 6.912 83.9355 7.1977 84.535 7.77396C85.1298 8.34978 85.4269 9.19893 85.4269 10.3166V19.9421H79.9849V12.4882C79.9849 12.0996 79.8995 11.8056 79.723 11.6091C79.5465 11.413 79.2794 11.3145 78.9269 11.3145C78.6045 11.3145 78.3475 11.4254 78.1557 11.6514C77.964 11.8775 77.8686 12.1805 77.8686 12.5642V19.9412H72.4265V19.9416ZM88.3035 19.9416V11.1869H86.4897V7.14207H88.3035V3.37895H93.8062V7.14207H95.7708V11.1869H93.8062V19.9416H88.3035ZM96.5268 2.76471C96.5268 1.97959 96.844 1.32252 97.474 0.793514C98.1036 0.264505 98.8748 0 99.792 0C100.709 0 101.475 0.264505 102.095 0.793514C102.714 1.32252 103.027 1.97959 103.027 2.76471C103.027 3.53262 102.714 4.18527 102.09 4.72311C101.465 5.26095 100.699 5.52943 99.792 5.52943C98.8748 5.52943 98.1041 5.26051 97.474 4.72708C96.844 4.19366 96.5268 3.54101 96.5268 2.76471ZM97.0405 19.9416V7.14207H102.513V19.9416H97.0405ZM104.967 19.9416V0.0256115H110.439V19.9416H104.967ZM118.002 13.5418C118.002 14.4506 118.113 15.1333 118.334 15.5938C118.556 16.0504 118.889 16.2809 119.332 16.2809C119.775 16.2809 120.113 16.0465 120.345 15.5727C120.576 15.1033 120.692 14.425 120.692 13.5418C120.692 12.6415 120.576 11.9548 120.345 11.4854C120.113 11.012 119.775 10.7771 119.332 10.7771C118.899 10.7771 118.571 11.0116 118.344 11.477C118.117 11.9464 118.001 12.6335 118.001 13.5418H118.002ZM120.813 19.9416V18.5294C120.275 19.1437 119.715 19.5919 119.136 19.8776C118.561 20.1593 117.931 20.3002 117.256 20.3002C115.75 20.3002 114.571 19.7071 113.719 18.5211C112.867 17.335 112.439 15.6751 112.439 13.5418C112.439 11.3918 112.862 9.72794 113.704 8.55025C114.545 7.37257 115.729 6.78395 117.256 6.78395C117.941 6.78395 118.571 6.92481 119.145 7.20212C119.715 7.47943 120.274 7.92321 120.813 8.52906V7.14251H126.285V19.9421H120.813L120.813 19.9416ZM128.497 19.9416V0.0256115H133.969V19.9416H128.497ZM12.1533 41.049C11.5637 41.2623 10.989 41.4287 10.4348 41.5352C9.87579 41.642 9.32156 41.6977 8.77213 41.6977C7.6885 41.6977 6.65063 41.5144 5.65285 41.143C4.66029 40.7717 3.74834 40.2299 2.92179 39.5216C1.93925 38.664 1.20377 37.6272 0.724915 36.4071C0.241708 35.1871 -0.000549316 33.7404 -0.000549316 32.0766C-0.000549316 29.3207 0.805958 27.0762 2.41287 25.3483C4.02502 23.6204 6.07592 22.7545 8.58041 22.7545C9.20043 22.7545 9.80477 22.7968 10.4047 22.8869C10.9991 22.9722 11.5838 23.1002 12.1533 23.2667V27.644C11.7803 27.4692 11.4025 27.3367 11.0296 27.2431C10.6566 27.1534 10.2989 27.1066 9.95117 27.1066C8.75208 27.1066 7.84013 27.5336 7.22011 28.3868C6.60009 29.2399 6.28812 30.4984 6.28812 32.1539C6.28812 33.7197 6.59573 34.9314 7.21009 35.7845C7.82488 36.6376 8.69631 37.0642 9.82046 37.0642C10.2335 37.0642 10.6318 37.013 11.0248 36.9149C11.4126 36.8125 11.7903 36.6677 12.1533 36.4756V41.0494V41.049ZM13.7253 41.3391V21.4231H19.1674V30.1778C19.6606 29.538 20.2406 29.0602 20.9107 28.74C21.5808 28.4203 22.3516 28.2583 23.2287 28.2583C24.3672 28.2583 25.2386 28.5528 25.8334 29.137C26.4282 29.7256 26.7253 30.5748 26.7253 31.6884V41.3395H21.2832V33.8645C21.2832 33.472 21.1978 33.1819 21.0214 32.9942C20.8449 32.8065 20.5778 32.7125 20.2253 32.7125C19.9029 32.7125 19.6458 32.8193 19.4545 33.0366C19.2628 33.2543 19.1674 33.5532 19.1674 33.937V41.3395H13.7253V41.3391ZM28.6952 41.3391V21.4231H34.1372V30.1778C34.6309 29.538 35.2104 29.0602 35.8805 28.74C36.5511 28.4203 37.3214 28.2583 38.1985 28.2583C39.3371 28.2583 40.2089 28.5528 40.8032 29.137C41.398 29.7256 41.6951 30.5748 41.6951 31.6884V41.3395H36.2531V33.8645C36.2531 33.472 36.1677 33.1819 35.9912 32.9942C35.8147 32.8065 35.5477 32.7125 35.1952 32.7125C34.8727 32.7125 34.6157 32.8193 34.4244 33.0366C34.2327 33.2543 34.1372 33.5532 34.1372 33.937V41.3395H28.6952V41.3391ZM48.9864 34.9393C48.9864 35.8481 49.0975 36.5308 49.3188 36.9913C49.5402 37.4479 49.8731 37.6784 50.3162 37.6784C50.7602 37.6784 51.0974 37.444 51.3292 36.9701C51.5606 36.5007 51.6769 35.8225 51.6769 34.9393C51.6769 34.039 51.5606 33.3523 51.3292 32.8829C51.0974 32.4095 50.7602 32.1746 50.3162 32.1746C49.8831 32.1746 49.5554 32.4091 49.3289 32.8745C49.1019 33.3439 48.986 34.0306 48.986 34.9393H48.9864ZM51.7981 41.3391V39.9269C51.2591 40.5412 50.6996 40.9894 50.1201 41.2751C49.5459 41.5568 48.9158 41.6977 48.2409 41.6977C46.7342 41.6977 45.5551 41.1046 44.7033 39.9186C43.8519 38.7325 43.4236 37.073 43.4236 34.9393C43.4236 32.7889 43.8467 31.125 44.6885 29.9473C45.5299 28.7696 46.7141 28.181 48.2409 28.181C48.9258 28.181 49.5563 28.3219 50.1306 28.5992C50.7001 28.8765 51.2595 29.3203 51.7985 29.9261V28.5396H57.2706V41.3391H51.7985H51.7981ZM64.2891 34.5039C64.2891 35.3615 64.395 36.0102 64.612 36.4539C64.8285 36.8933 65.1558 37.115 65.5893 37.115C66.0023 37.115 66.31 36.9017 66.5165 36.4707C66.723 36.0437 66.8289 35.3871 66.8289 34.5035C66.8289 33.6292 66.723 32.9677 66.5113 32.5155C66.2995 32.0673 65.9923 31.8412 65.5893 31.8412C65.1662 31.8412 64.8438 32.0673 64.622 32.5239C64.4002 32.9761 64.2891 33.6376 64.2891 34.5035V34.5039ZM66.8285 28.5139H72.0283V40.75C72.0283 42.4143 71.444 43.7024 70.2697 44.6112C69.1007 45.52 67.4376 45.9726 65.2817 45.9726C63.4221 45.9726 61.9912 45.6224 60.9938 44.9229C59.9912 44.223 59.427 43.1739 59.3006 41.7745H63.8961C63.9266 42.1242 64.0621 42.4015 64.2991 42.602C64.5405 42.8025 64.8682 42.9005 65.2817 42.9005C65.7801 42.9005 66.1631 42.7557 66.4302 42.4695C66.6973 42.1794 66.8285 41.7613 66.8285 41.211V39.0394C66.3649 39.6068 65.8564 40.0294 65.3017 40.3067C64.7475 40.584 64.1227 40.7244 63.4377 40.7244C62.0016 40.7244 60.8779 40.1742 60.0666 39.069C59.2557 37.9641 58.8475 36.4279 58.8475 34.4527C58.8475 32.4687 59.2501 30.9285 60.0514 29.8321C60.8526 28.7312 61.9711 28.181 63.4072 28.181C64.0673 28.181 64.6721 28.3135 65.2211 28.5736C65.7701 28.8336 66.3091 29.239 66.8285 29.7897V28.5139ZM79.5012 34.9393C79.5012 35.8481 79.6119 36.5308 79.8337 36.9913C80.0555 37.4479 80.3879 37.6784 80.8315 37.6784C81.275 37.6784 81.6127 37.444 81.8441 36.9701C82.0759 36.5007 82.1918 35.8225 82.1918 34.9393C82.1918 34.039 82.0759 33.3523 81.8441 32.8829C81.6127 32.4095 81.275 32.1746 80.8315 32.1746C80.3979 32.1746 80.0707 32.4091 79.8437 32.8745C79.6171 33.3439 79.5012 34.0306 79.5012 34.9393ZM82.3125 41.3391V39.9269C81.7735 40.5412 81.2145 40.9894 80.6345 41.2751C80.0602 41.5568 79.4302 41.6977 78.7553 41.6977C77.2481 41.6977 76.0691 41.1046 75.2177 39.9186C74.3663 38.7325 73.938 37.073 73.938 34.9393C73.938 32.7889 74.3611 31.125 75.2029 29.9473C76.0443 28.7696 77.2281 28.181 78.7553 28.181C79.4402 28.181 80.0703 28.3219 80.6445 28.5992C81.214 28.8765 81.7735 29.3203 82.3125 29.9261V28.5396H87.7846V41.3391H82.3125ZM89.785 41.3391V28.5396H95.0453V30.4379C95.5595 29.7124 96.159 29.175 96.8496 28.8292C97.5346 28.4835 98.3511 28.3091 99.2831 28.3091C100.427 28.3091 101.294 28.5948 101.893 29.171C102.488 29.7468 102.785 30.596 102.785 31.7136V41.3391H97.3433V33.8853C97.3433 33.4971 97.2579 33.2026 97.0814 33.0065C96.905 32.8105 96.6379 32.712 96.2854 32.712C95.963 32.712 95.7059 32.8229 95.5142 33.0489C95.3224 33.275 95.227 33.5779 95.227 33.9621V41.3391H89.785ZM104.967 41.3391V21.4231H110.439V41.3391H104.967ZM118.002 34.9393C118.002 35.8481 118.113 36.5308 118.334 36.9913C118.556 37.4479 118.889 37.6784 119.332 37.6784C119.775 37.6784 120.113 37.444 120.345 36.9701C120.576 36.5007 120.692 35.8225 120.692 34.9393C120.692 34.039 120.576 33.3523 120.345 32.8829C120.113 32.4095 119.775 32.1746 119.332 32.1746C118.899 32.1746 118.571 32.4091 118.344 32.8745C118.117 33.3439 118.001 34.0306 118.001 34.9393H118.002ZM120.813 41.3391V39.9269C120.275 40.5412 119.715 40.9894 119.136 41.2751C118.561 41.5568 117.931 41.6977 117.256 41.6977C115.75 41.6977 114.571 41.1046 113.719 39.9186C112.867 38.7325 112.439 37.073 112.439 34.9393C112.439 32.7889 112.862 31.125 113.704 29.9473C114.545 28.7696 115.729 28.181 117.256 28.181C117.941 28.181 118.571 28.3219 119.145 28.5992C119.715 28.8765 120.274 29.3203 120.813 29.9261V28.5396H126.285V41.3391H120.813H120.813ZM128.497 41.3391V21.4231H133.969V41.3391H128.497Z" fill="#FF1537"/>
<path d="M49.0222 53.9846C50.1507 53.9846 50.942 53.3779 50.942 52.3583V52.3428C50.942 51.4402 50.3581 51.0278 49.2218 50.7474C48.1852 50.4983 47.9399 50.3116 47.9399 49.8916V49.8762C47.9399 49.5185 48.2623 49.2301 48.8148 49.2301C49.3063 49.2301 49.7899 49.4249 50.2736 49.7905L50.7803 49.0668C50.2352 48.6234 49.6135 48.3823 48.8301 48.3823C47.763 48.3823 46.9953 49.0279 46.9953 49.9618V49.9773C46.9953 50.981 47.6401 51.3237 48.7843 51.6036C49.7825 51.8372 49.9973 52.047 49.9973 52.436V52.4514C49.9973 52.8564 49.6287 53.1359 49.0453 53.1359C48.3852 53.1359 47.8628 52.8793 47.3486 52.428L46.7805 53.1129C47.4253 53.6963 48.2004 53.9842 49.0222 53.9842V53.9846ZM51.9628 49.1683H52.9611V48.2737H51.9628V49.1683ZM52.0012 53.9069H52.9301V49.7984H52.0012V53.9069ZM54.1432 53.9069H55.0721V51.5882C55.0721 50.9501 55.4486 50.569 55.9858 50.569C56.5383 50.569 56.8533 50.9346 56.8533 51.5727V53.9073H57.7822V51.2852C57.7822 50.3358 57.2524 49.7137 56.3387 49.7137C55.7091 49.7137 55.3331 50.0484 55.0721 50.4295V49.7993H54.1432V53.9078V53.9069ZM60.7765 54.0001C61.5673 54.0001 62.0357 53.6808 62.4348 53.2295L61.8745 52.6696C61.5825 52.9729 61.2601 53.1752 60.8227 53.1752C60.1085 53.1752 59.6096 52.5914 59.6096 51.8602V51.8447C59.6096 51.1285 60.1085 50.5372 60.7843 50.5372C61.2449 50.5372 61.5442 50.7474 61.8283 51.0508L62.4117 50.4202C62.0278 50.0002 61.5516 49.7123 60.7913 49.7123C59.5704 49.7123 58.6803 50.6926 58.6803 51.8597V51.8752C58.6803 53.0423 59.5709 53.9996 60.776 53.9996L60.7765 54.0001ZM65.0299 54.0001C65.7746 54.0001 66.3044 53.6967 66.6882 53.2295L66.1436 52.7393C65.8212 53.0582 65.4987 53.2295 65.0456 53.2295C64.4469 53.2295 63.9785 52.8564 63.8788 52.1869H66.8577C66.8656 52.0938 66.873 52.0081 66.873 51.9224C66.873 50.7399 66.2203 49.7128 64.9301 49.7128C63.7711 49.7128 62.9494 50.6776 62.9494 51.8527V51.8681C62.9494 53.1363 63.8552 54.0001 65.0299 54.0001ZM63.8709 51.5648C63.9554 50.9267 64.3546 50.4833 64.9227 50.4833C65.5367 50.4833 65.89 50.958 65.9515 51.5648H63.8709ZM70.8959 53.9069H71.8327V48.4212H71.18L69.7291 48.8879L69.9287 49.666L70.8959 49.3935V53.9064V53.9069ZM74.8884 53.1284C74.4278 53.1284 74.0671 52.9575 73.6597 52.6148L73.1451 53.3461C73.5982 53.7276 74.1202 53.9996 74.8649 53.9996C76.3158 53.9996 77.168 52.7857 77.168 51.0349V51.0194C77.168 49.9459 76.9149 49.3467 76.5232 48.9422C76.1393 48.5611 75.7019 48.3664 75.0256 48.3664C73.8357 48.3664 73.0222 49.1833 73.0222 50.2493V50.2648C73.0222 51.3153 73.7821 51.9918 74.9263 51.9918C75.4792 51.9918 75.8936 51.7741 76.1929 51.4084C76.1851 52.1322 75.8396 53.1279 74.888 53.1279L74.8884 53.1284ZM75.0649 51.1912C74.3969 51.1912 73.9669 50.7867 73.9669 50.2184V50.2029C73.9669 49.643 74.366 49.1913 75.0339 49.1913C75.7176 49.1913 76.155 49.6271 76.155 50.195V50.2104C76.155 50.7394 75.7481 51.1907 75.0649 51.1907V51.1912ZM79.9017 54.0001C81.0917 54.0001 81.8977 53.2688 81.8977 52.156V52.1406C81.8977 50.9889 81.0686 50.4286 80.0242 50.4286C79.6634 50.4286 79.4255 50.4908 79.1719 50.5845L79.2564 49.3083H81.6598V48.46H78.4429L78.2896 51.1289L78.8577 51.5104C79.134 51.378 79.4643 51.2693 79.8481 51.2693C80.5008 51.2693 80.9614 51.6195 80.9614 52.1719V52.1874C80.9614 52.7557 80.5392 53.1288 79.8943 53.1288C79.395 53.1288 78.9423 52.8802 78.5122 52.4753L77.9288 53.1677C78.4355 53.6658 79.0804 54.0001 79.9017 54.0001ZM85.5142 53.9069H86.42V52.685H87.1877V51.899H86.42V48.4212H85.6139L82.6271 52.0006L82.804 52.6855H85.5142V53.9073V53.9069ZM83.7482 51.8995L85.5142 49.7441V51.8995H83.7482Z" fill="#FF1537"/>
<path fill-rule="evenodd" clip-rule="evenodd" d="M144.981 19.3343C148.143 16.389 151.803 13.7731 156.067 11.5445C158.585 10.229 163.27 8.50643 166.594 8.26356L167.715 8.12094C168.089 8.11299 167.513 8.07369 167.891 8.12844C168.116 8.16112 167.994 8.14169 168.111 8.20881C168.058 8.24325 162.56 9.86472 160.577 10.728C160.302 10.8472 160.292 10.8671 160.051 11.0062L157.797 12.1406C157.595 12.2753 157.539 12.3155 157.303 12.4387C151.277 15.584 146.651 20.3372 142.493 24.5405C142.38 24.6262 142.277 24.6787 142.149 24.7419C142.329 26.774 152.118 35.2276 153.915 36.7841C155.437 38.1279 158.007 39.4919 159.86 40.5437C159.914 40.5737 159.96 40.6025 160.016 40.6316L161.24 41.2502C161.45 41.3107 161.332 41.2423 161.578 41.3425C162.134 41.5691 161.73 41.5174 162.786 41.8526C163.129 41.9612 162.998 41.9899 163.55 42.0853C163.699 42.1811 163.674 42.1122 164.071 42.2584C164.264 42.3295 164.005 42.2774 164.395 42.3599C164.491 42.3802 164.584 42.3935 164.699 42.4006C164.832 42.5273 164.704 42.4783 165.073 42.5926C166.044 42.8951 165.983 42.7251 166.465 42.9658C166.178 43.0642 164.042 42.6191 163.596 42.5096C163.13 42.3953 163.616 42.4474 163.173 42.3626C154.724 40.0474 150.587 36.4865 145.685 31.9846C145.376 31.7926 144.252 30.5424 143.804 30.1013L142.871 29.0879C142.546 28.8278 142.486 28.6061 142.252 28.3756L141.166 27.1008C140.98 26.8482 139.663 25.1058 139.638 24.9181C139.6 24.6386 139.938 24.5525 140.041 24.4725C141.688 22.5526 143.061 21.0733 144.98 19.3348L144.981 19.3343Z" fill="#FF1537"/>
<path fill-rule="evenodd" clip-rule="evenodd" d="M148.457 20.2152C151.17 17.6881 154.31 15.4431 157.97 13.5311C160.13 12.4024 164.149 10.9244 167.001 10.716L167.964 10.5937C168.284 10.5866 167.791 10.5531 168.115 10.5999C168.308 10.6277 168.204 10.6109 168.304 10.6688C168.259 10.6983 163.541 12.0898 161.84 12.8303C161.604 12.9327 161.595 12.9495 161.389 13.0692L159.454 14.0428C159.281 14.1581 159.233 14.1925 159.03 14.2985C153.859 16.9974 149.89 21.0758 146.322 24.6826C146.225 24.7564 146.137 24.801 146.028 24.8553C146.182 26.5991 154.581 33.8524 156.123 35.1882C157.429 36.3412 159.634 37.5118 161.225 38.4144C161.271 38.44 161.31 38.4647 161.358 38.4899L162.409 39.0206C162.589 39.0723 162.487 39.014 162.699 39.1001C163.175 39.2944 162.829 39.2503 163.735 39.5377C164.03 39.6309 163.917 39.6556 164.391 39.7373C164.519 39.8195 164.497 39.7603 164.838 39.8857C165.004 39.9471 164.781 39.902 165.117 39.9727C165.199 39.9903 165.278 40.0014 165.377 40.0076C165.492 40.1162 165.382 40.0743 165.698 40.1727C166.532 40.4324 166.48 40.2862 166.893 40.4929C166.646 40.5776 164.814 40.1952 164.431 40.1016C164.031 40.0036 164.448 40.0486 164.068 39.9753C156.819 37.9887 153.269 34.9334 149.063 31.0705C148.797 30.9053 147.834 29.8328 147.449 29.4543L146.648 28.5849C146.369 28.3614 146.317 28.1715 146.116 27.9737L145.185 26.8795C145.025 26.6627 143.895 25.1679 143.874 25.0068C143.842 24.767 144.131 24.6932 144.22 24.6248C145.633 22.9773 146.811 21.7077 148.458 20.2165L148.457 20.2152Z" fill="#005794"/>
<path fill-rule="evenodd" clip-rule="evenodd" d="M171.044 21.6757L174.187 21.5503L169.8 24.6409L169.377 23.6297L171.044 21.6757Z" fill="#005794"/>
<path fill-rule="evenodd" clip-rule="evenodd" d="M174.498 28.7612L181.489 30.225C181.489 30.225 177.443 32.0602 175.804 32.3265C174.165 32.5932 171.912 32.0933 171.118 31.4045C170.324 30.716 170.504 30.0382 170.504 30.0382L174.498 28.7607V28.7612Z" fill="#005794"/>
<path fill-rule="evenodd" clip-rule="evenodd" d="M158.752 32.9491L165.204 16.0433L170.051 14.5022L161.15 35.285L158.752 32.9491Z" fill="#005794"/>
<path fill-rule="evenodd" clip-rule="evenodd" d="M161.15 35.2851C161.618 34.9473 161.488 35.0621 161.94 34.6439C161.98 34.6068 162.511 34.0778 162.598 33.9842C164.1 32.3517 164.728 30.6829 166.635 29.2743C167.772 31.1294 167.445 31.6972 169.098 32.927C173.246 36.0132 178.615 32.3667 181.49 30.2255C178.554 30.8909 174.028 33.5815 171.504 31.1011C167.749 27.4117 173.75 25.5765 175.557 24.5671L174.177 21.5264L169.729 24.2699C170.608 21.7083 176.485 14.4541 170.051 14.5027C168.557 16.5697 166.675 21.9569 165.53 24.7053C164.105 28.1253 162.298 31.7388 161.151 35.2851H161.15Z" fill="#FF1537"/>
<path fill-rule="evenodd" clip-rule="evenodd" d="M191.654 31.7456C188.493 34.691 184.833 37.3069 180.568 39.5355C178.051 40.851 173.366 42.5736 170.042 42.8164L168.92 42.959C168.547 42.967 169.122 43.0059 168.744 42.9515C168.519 42.9189 168.641 42.9383 168.524 42.8712C168.577 42.8367 174.075 41.2153 176.058 40.352C176.333 40.2328 176.343 40.2129 176.584 40.0738L178.838 38.9394C179.04 38.8047 179.096 38.7645 179.332 38.6413C185.358 35.496 189.984 30.7424 194.142 26.5395C194.255 26.4538 194.357 26.4012 194.485 26.3381C194.306 24.306 184.517 15.8524 182.719 14.2959C181.198 12.9521 178.628 11.5881 176.775 10.5363C176.721 10.5062 176.675 10.4775 176.619 10.4484L175.394 9.82974C175.184 9.76925 175.303 9.83769 175.057 9.73745C174.501 9.51092 174.904 9.56259 173.848 9.22743C173.505 9.1188 173.637 9.0901 173.084 8.99428C172.935 8.89846 172.96 8.96734 172.563 8.82162C172.37 8.75053 172.63 8.80263 172.239 8.72006C172.143 8.69975 172.051 8.6865 171.936 8.67943C171.802 8.5527 171.93 8.60172 171.562 8.48735C170.59 8.18487 170.651 8.35487 170.17 8.11421C170.457 8.01574 172.593 8.46085 173.039 8.57036C173.505 8.68473 173.019 8.63263 173.462 8.71741C181.911 11.0326 186.047 14.5935 190.95 19.0954C191.259 19.2874 192.382 20.5375 192.83 20.9787L193.763 21.9921C194.089 22.2522 194.15 22.4739 194.383 22.7044L195.468 23.9792C195.655 24.2318 196.972 25.9742 196.997 26.1619C197.034 26.4414 196.697 26.5275 196.593 26.6075C194.946 28.5274 193.574 30.0067 191.654 31.7452V31.7456Z" fill="#005794"/>
<path fill-rule="evenodd" clip-rule="evenodd" d="M188.178 30.8648C185.465 33.392 182.325 35.6365 178.666 37.5486C176.506 38.6772 172.486 40.1556 169.634 40.364L168.672 40.4864C168.351 40.4934 168.845 40.5265 168.521 40.4802C168.327 40.4524 168.432 40.4687 168.332 40.4113C168.377 40.3817 173.095 38.9903 174.796 38.2498C175.032 38.1473 175.041 38.1305 175.247 38.0109L177.182 37.0372C177.355 36.922 177.403 36.8871 177.606 36.7815C182.777 34.0826 186.746 30.0042 190.313 26.3974C190.41 26.3237 190.498 26.2791 190.608 26.2248C190.454 24.481 182.055 17.2276 180.512 15.8919C179.207 14.7389 177.001 13.5683 175.411 12.6657C175.365 12.6401 175.325 12.6153 175.277 12.5902L174.226 12.0594C174.047 12.0073 174.148 12.066 173.937 11.9799C173.46 11.7856 173.806 11.8298 172.9 11.5423C172.605 11.4491 172.718 11.4244 172.244 11.3427C172.117 11.2606 172.138 11.3198 171.797 11.1944C171.631 11.1334 171.854 11.1785 171.519 11.1074C171.437 11.0901 171.357 11.0787 171.258 11.0729C171.144 10.9643 171.254 11.0062 170.938 10.9078C170.104 10.6481 170.156 10.7943 169.743 10.5876C169.99 10.5028 171.822 10.8848 172.205 10.9789C172.605 11.0769 172.188 11.0319 172.568 11.1052C179.818 13.0918 183.367 16.1466 187.573 20.01C187.839 20.1751 188.803 21.2477 189.187 21.6262L189.988 22.4956C190.267 22.7191 190.319 22.909 190.52 23.1068L191.451 24.201C191.611 24.4178 192.741 25.9126 192.762 26.0737C192.794 26.3135 192.504 26.3873 192.416 26.4557C191.003 28.1032 189.825 29.3728 188.178 30.864V30.8648Z" fill="#FF1537"/>
</g>
<defs>
<clipPath id="clip0_283_17936">
<rect width="197" height="54" fill="white"/>
</clipPath>
</defs>
</svg>
