<svg width="44" height="44" viewBox="0 0 44 44" fill="none" xmlns="http://www.w3.org/2000/svg">
<path d="M20.167 22.0013C20.167 22.4875 20.3601 22.9538 20.704 23.2977C21.0478 23.6415 21.5141 23.8346 22.0003 23.8346C22.4866 23.8346 22.9529 23.6415 23.2967 23.2977C23.6405 22.9538 23.8337 22.4875 23.8337 22.0013C23.8337 21.5151 23.6405 21.0488 23.2967 20.7049C22.9529 20.3611 22.4866 20.168 22.0003 20.168C21.5141 20.168 21.0478 20.3611 20.704 20.7049C20.3601 21.0488 20.167 21.5151 20.167 22.0013Z" stroke="#005999" stroke-width="2.5" stroke-linecap="round" stroke-linejoin="round"/>
<path d="M21.9997 12.832C20.1867 12.832 18.4144 13.3696 16.907 14.3769C15.3995 15.3841 14.2246 16.8158 13.5308 18.4908C12.837 20.1658 12.6554 22.0089 13.0091 23.787C13.3628 25.5652 14.2359 27.1985 15.5179 28.4805C16.7998 29.7625 18.4332 30.6355 20.2114 30.9892C21.9895 31.3429 23.8326 31.1614 25.5076 30.4676C27.1826 29.7738 28.6142 28.5989 29.6215 27.0914C30.6287 25.584 31.1663 23.8117 31.1663 21.9987" stroke="#005999" stroke-width="2.5" stroke-linecap="round" stroke-linejoin="round"/>
<path d="M23.8337 5.59898C20.4348 5.21766 17.0015 5.90199 14.0085 7.55729C11.0156 9.21259 8.61097 11.7571 7.12736 14.8387C5.64374 17.9204 5.15442 21.3869 5.72709 24.7588C6.29976 28.1308 7.90612 31.2414 10.324 33.6604C12.7418 36.0795 15.8516 37.6874 19.2232 38.2618C22.5949 38.8361 26.0617 38.3486 29.1441 36.8665C32.2265 35.3844 34.7721 32.9811 36.429 29.989C38.0858 26.9969 38.7718 23.5639 38.3922 20.1648" stroke="#005999" stroke-width="2.5" stroke-linecap="round" stroke-linejoin="round"/>
<path d="M27.5 11V16.5H33L38.5 11H33V5.5L27.5 11Z" stroke="#005999" stroke-width="2.5" stroke-linecap="round" stroke-linejoin="round"/>
<path d="M27.5 16.5L22 22" stroke="#005999" stroke-width="2.5" stroke-linecap="round" stroke-linejoin="round"/>
</svg>
