<svg width="34" height="34" viewBox="0 0 34 34" fill="none" xmlns="http://www.w3.org/2000/svg">
<path d="M4.25 29.75V26.9167C4.25 25.4138 4.84702 23.9724 5.90973 22.9097C6.97243 21.847 8.41377 21.25 9.91667 21.25H15.5833C17.0862 21.25 18.5276 21.847 19.5903 22.9097C20.653 23.9724 21.25 25.4138 21.25 26.9167V29.75M22.6667 4.43417C23.8856 4.74626 24.966 5.45516 25.7375 6.44911C26.509 7.44305 26.9278 8.66551 26.9278 9.92375C26.9278 11.182 26.509 12.4044 25.7375 13.3984C24.966 14.3923 23.8856 15.1012 22.6667 15.4133M29.75 29.75V26.9167C29.7428 25.666 29.322 24.4528 28.5533 23.4662C27.7845 22.4797 26.711 21.7752 25.5 21.4625M7.08333 9.91667C7.08333 11.4196 7.68036 12.8609 8.74306 13.9236C9.80577 14.9863 11.2471 15.5833 12.75 15.5833C14.2529 15.5833 15.6942 14.9863 16.7569 13.9236C17.8196 12.8609 18.4167 11.4196 18.4167 9.91667C18.4167 8.41377 17.8196 6.97243 16.7569 5.90973C15.6942 4.84702 14.2529 4.25 12.75 4.25C11.2471 4.25 9.80577 4.84702 8.74306 5.90973C7.68036 6.97243 7.08333 8.41377 7.08333 9.91667Z" stroke="#005999" stroke-width="2.5" stroke-linecap="round" stroke-linejoin="round"/>
</svg>
