<svg width="34" height="34" viewBox="0 0 34 34" fill="none" xmlns="http://www.w3.org/2000/svg">
<path d="M22.7383 4.25H7.01221V29.75H26.9878V8.49947L22.7383 4.25Z" fill="#E8E8E8"/>
<path d="M23.5956 16.8609C23.2892 16.3148 22.2305 16.1433 21.7447 16.0661C21.3619 16.0052 20.971 15.987 20.5838 15.9873C20.2798 15.9853 19.9802 16.0003 19.6845 16.0171C19.5755 16.0244 19.4676 16.0338 19.3597 16.0432C19.2492 15.9288 19.1424 15.8106 19.039 15.6898C18.3813 14.9112 17.8503 14.0282 17.4176 13.1107C17.5324 12.6674 17.6244 12.2047 17.6799 11.7242C17.7812 10.8473 17.8161 9.84783 17.4875 9.01173C17.374 8.72316 17.0715 8.37185 16.7224 8.54679C16.3211 8.74797 16.2083 9.31796 16.1756 9.72201C16.1492 10.0486 16.1677 10.376 16.2225 10.6971C16.2783 11.0204 16.3682 11.3274 16.4661 11.634C16.5575 11.9151 16.6582 12.194 16.7679 12.4703C16.6983 12.6878 16.6244 12.9015 16.5467 13.1097C16.3657 13.5843 16.17 14.0352 15.9818 14.469C15.8825 14.684 15.7854 14.8945 15.6904 15.1003C15.3896 15.761 15.0631 16.4095 14.6966 17.0365C13.8419 17.338 13.0748 17.6875 12.4378 18.0983C12.0961 18.3191 11.7942 18.5589 11.5428 18.8219C11.3055 19.0702 11.0643 19.3924 11.0431 19.7491C11.0313 19.9504 11.111 20.1458 11.276 20.2652C11.5028 20.4347 11.8034 20.4234 12.0666 20.3683C12.9286 20.1874 13.5906 19.4464 14.1544 18.8218C14.5427 18.3916 14.9847 17.8453 15.447 17.1847C15.448 17.1832 15.4491 17.1816 15.4501 17.1801C16.2431 16.9343 17.1061 16.7267 18.022 16.5741C18.4405 16.5048 18.87 16.448 19.3081 16.4081C19.6162 16.6967 19.9491 16.9594 20.3122 17.1789C20.5951 17.3529 20.8959 17.4998 21.2108 17.6094C21.5293 17.7134 21.8496 17.7984 22.1804 17.8521C22.3474 17.876 22.5183 17.8869 22.6928 17.8803C23.0823 17.8656 23.6413 17.7162 23.678 17.2436C23.6893 17.099 23.6581 16.9721 23.5956 16.8609ZM14.2708 17.7281C14.0884 18.0107 13.9124 18.2648 13.7467 18.4885C13.3407 19.0409 12.877 19.697 12.2057 19.9423C12.0782 19.9889 11.9103 20.037 11.7333 20.0266C11.5757 20.0174 11.4203 19.9478 11.4274 19.7688C11.431 19.6751 11.4768 19.5556 11.5471 19.4382C11.6241 19.3094 11.7194 19.1914 11.8226 19.0828C12.0437 18.8505 12.3232 18.6253 12.6449 18.4168C13.1381 18.0968 13.7271 17.8087 14.3835 17.5517C14.3457 17.6114 14.3081 17.6708 14.2708 17.7281ZM16.5603 10.6413C16.5097 10.3457 16.5021 10.0461 16.5332 9.75792C16.5487 9.61384 16.578 9.47322 16.6205 9.34142C16.6565 9.22956 16.7342 8.95655 16.8582 8.92148C17.0625 8.86362 17.1254 9.3024 17.1485 9.42654C17.2802 10.1327 17.1641 10.918 17.0061 11.6107C16.981 11.7209 16.953 11.8293 16.9243 11.9373C16.8753 11.8026 16.8286 11.6676 16.7857 11.5318C16.6932 11.2353 16.6085 10.9354 16.5603 10.6413ZM17.9635 16.2158C17.1956 16.3403 16.4651 16.5034 15.7785 16.6959C15.8612 16.6728 16.239 15.9568 16.3233 15.8082C16.7203 15.1088 17.0451 14.3748 17.2785 13.6049C17.6907 14.4199 18.1908 15.1997 18.8053 15.8937C18.8619 15.9567 18.9194 16.019 18.978 16.0804C18.6336 16.1175 18.2948 16.1627 17.9635 16.2158ZM23.1565 17.1994C23.1285 17.3512 22.8042 17.438 22.6529 17.4619C22.2058 17.5322 21.7328 17.4759 21.3049 17.3322C21.0112 17.2336 20.7281 17.0994 20.459 16.9379C20.1916 16.7763 19.9413 16.5863 19.7074 16.3767C19.9958 16.3593 20.2878 16.348 20.5811 16.3535C20.8745 16.3565 21.1701 16.3713 21.4621 16.4094C22.0098 16.4704 22.6234 16.6584 23.0544 17.0138C23.1393 17.0838 23.1664 17.1457 23.1565 17.1994Z" fill="#FB3449"/>
<path d="M23.3959 6.37478H7.01221V4.25H22.7383L23.3959 6.37478Z" fill="#FB3449"/>
<path d="M14.9182 24.5335C14.9182 24.9844 14.7854 25.3326 14.5194 25.5781C14.2535 25.8238 13.8758 25.9466 13.3863 25.9466H13.0799V27.2853H11.9897V23.25H13.3864C13.8961 23.25 14.2789 23.3614 14.5346 23.584C14.7904 23.8066 14.9182 24.1231 14.9182 24.5335ZM13.08 25.0579H13.2788C13.4425 25.0579 13.5727 25.0119 13.6693 24.9198C13.766 24.8278 13.8143 24.7008 13.8143 24.5389C13.8143 24.2666 13.6634 24.1304 13.3616 24.1304H13.08V25.0579Z" fill="#A4A9AD"/>
<path d="M18.9869 25.1821C18.9869 25.8555 18.8015 26.3745 18.4307 26.7388C18.06 27.1032 17.5387 27.2853 16.8671 27.2853H15.5615V23.25H16.9582C17.6059 23.25 18.1059 23.4156 18.4583 23.7468C18.8106 24.078 18.9869 24.5565 18.9869 25.1821ZM17.8553 25.2208C17.8553 24.8509 17.7821 24.5768 17.6358 24.3982C17.4896 24.2197 17.2674 24.1305 16.9692 24.1305H16.6519V26.391H16.8948C17.2261 26.391 17.4689 26.2949 17.6235 26.1025C17.778 25.9104 17.8553 25.6164 17.8553 25.2208Z" fill="#A4A9AD"/>
<path d="M20.7837 27.2853H19.71V23.25H22.0948V24.125H20.7837V24.895H21.9926V25.77H20.7837V27.2853Z" fill="#A4A9AD"/>
<path d="M22.7383 8.49947H26.9878L22.7383 4.25V8.49947Z" fill="#D1D3D3"/>
</svg>
