<svg width="120" height="38" viewBox="0 0 120 38" fill="none" xmlns="http://www.w3.org/2000/svg">
<rect x="0.5" y="1.27734" width="118.325" height="36" rx="2.5" fill="#0C0D10"/>
<path d="M60.2246 20.8971C58.1457 20.8971 56.4513 22.5519 56.4513 24.8311C56.4513 27.0964 58.1457 28.7651 60.2246 28.7651C62.3044 28.7651 63.9988 27.0964 63.9988 24.8311C63.998 22.5519 62.3035 20.8971 60.2246 20.8971ZM60.2246 27.2167C59.0853 27.2167 58.1033 26.2334 58.1033 24.832C58.1033 23.4159 59.0862 22.4474 60.2246 22.4474C61.364 22.4474 62.346 23.4159 62.346 24.832C62.346 26.2325 61.364 27.2167 60.2246 27.2167ZM51.9921 20.8971C49.9132 20.8971 48.2188 22.5519 48.2188 24.8311C48.2188 27.0964 49.9132 28.7651 51.9921 28.7651C54.0719 28.7651 55.7663 27.0964 55.7663 24.8311C55.7663 22.5519 54.0719 20.8971 51.9921 20.8971ZM51.9921 27.2167C50.8528 27.2167 49.8708 26.2334 49.8708 24.832C49.8708 23.4159 50.8536 22.4474 51.9921 22.4474C53.1314 22.4474 54.1134 23.4159 54.1134 24.832C54.1143 26.2325 53.1314 27.2167 51.9921 27.2167ZM42.2004 22.1051V23.7738H46.017C45.903 24.7127 45.6042 25.3981 45.1481 25.8745C44.5931 26.4554 43.7242 27.0964 42.2004 27.0964C39.851 27.0964 38.0143 25.1142 38.0143 22.6555C38.0143 20.1969 39.851 18.2146 42.2004 18.2146C43.4679 18.2146 44.3933 18.7363 45.0765 19.4069L46.2017 18.2294C45.2471 17.2757 43.9805 16.5459 42.2004 16.5459C38.9821 16.5459 36.2766 19.2876 36.2766 22.6555C36.2766 26.0234 38.9821 28.7651 42.2004 28.7651C43.9372 28.7651 45.248 28.1685 46.2725 27.0511C47.326 25.9485 47.654 24.3982 47.654 23.1467C47.654 22.76 47.6257 22.4021 47.5682 22.1042H42.2004V22.1051ZM82.2476 23.4011C81.9347 22.5223 80.9801 20.8971 79.0294 20.8971C77.0928 20.8971 75.4832 22.4918 75.4832 24.8311C75.4832 27.0363 77.0786 28.7651 79.2141 28.7651C80.9368 28.7651 81.9338 27.6625 82.3475 27.0215L81.0658 26.127C80.6389 26.7829 80.0547 27.2148 79.2141 27.2148C78.3744 27.2148 77.776 26.8125 77.3915 26.0225L82.4182 23.8469L82.2476 23.4011ZM77.1211 24.7127C77.0786 23.192 78.2462 22.4178 79.0868 22.4178C79.7418 22.4178 80.2969 22.761 80.4825 23.2521L77.1211 24.7127ZM73.0348 28.5274H74.6859V16.964H73.0348V28.5274ZM70.3284 21.7768H70.2718C69.9014 21.3143 69.189 20.8971 68.2928 20.8971C66.4127 20.8971 64.69 22.6259 64.69 24.8468C64.69 27.052 66.4127 28.7661 68.2928 28.7661C69.1899 28.7661 69.9014 28.3489 70.2718 27.8725H70.3284V28.4386C70.3284 29.9436 69.5594 30.7483 68.3211 30.7483C67.3099 30.7483 66.6832 29.9889 66.4269 29.3479L64.9888 29.9741C65.4016 31.0166 66.4976 32.2986 68.3211 32.2986C70.2577 32.2986 71.8955 31.1063 71.8955 28.2V21.1367H70.3293V21.7768H70.3284ZM68.4351 27.2167C67.2957 27.2167 66.342 26.2177 66.342 24.8468C66.342 23.4603 67.2957 22.4474 68.4351 22.4474C69.5594 22.4474 70.4424 23.4603 70.4424 24.8468C70.4424 26.2177 69.5594 27.2167 68.4351 27.2167ZM89.9852 16.964H86.0333V28.5274H87.6818V24.1466H89.9843C91.8122 24.1466 93.61 22.7619 93.61 20.5558C93.61 18.3496 91.813 16.964 89.9852 16.964ZM90.0276 22.5371H87.6818V18.5735H90.0276C91.2606 18.5735 91.9607 19.6419 91.9607 20.5558C91.9607 21.4512 91.2606 22.5371 90.0276 22.5371ZM100.221 20.8767C99.0265 20.8767 97.7899 21.4271 97.2781 22.6472L98.7419 23.2864C99.0547 22.6472 99.6381 22.4381 100.249 22.4381C101.102 22.4381 101.969 22.9737 101.983 23.9255V24.0449C101.684 23.8663 101.044 23.599 100.263 23.599C98.6853 23.599 97.0784 24.5064 97.0784 26.202C97.0784 27.7495 98.3724 28.7457 99.822 28.7457C100.93 28.7457 101.542 28.2249 101.926 27.6144H101.982V28.5071H103.575V24.0735C103.576 22.0219 102.11 20.8767 100.221 20.8767ZM100.021 27.2139C99.4817 27.2139 98.7277 26.9309 98.7277 26.2316C98.7277 25.339 99.6664 24.9967 100.477 24.9967C101.201 24.9967 101.543 25.1604 101.983 25.3834C101.855 26.4554 100.974 27.2139 100.021 27.2139ZM109.375 21.1293L107.484 26.1428H107.428L105.466 21.1293H103.689L106.631 28.1361L104.954 32.0341H106.674L111.209 21.1293H109.375ZM94.5204 28.5274H96.1689V16.964H94.5204V28.5274Z" fill="white"/>
<path d="M41.9123 10.252C41.9123 11.0272 41.6931 11.6442 41.2538 12.1048C40.7553 12.6524 40.1047 12.9262 39.3057 12.9262C38.5402 12.9262 37.8888 12.6487 37.3541 12.0937C36.8184 11.5378 36.5506 10.8496 36.5506 10.0282C36.5506 9.20587 36.8184 8.51767 37.3541 7.96267C37.8888 7.40675 38.5402 7.12925 39.3057 7.12925C39.6858 7.12925 40.049 7.20695 40.3937 7.36142C40.7393 7.51682 41.016 7.7231 41.2228 7.98117L40.757 8.46957C40.4061 8.0302 39.9226 7.81097 39.3048 7.81097C38.7462 7.81097 38.2636 8.01632 37.8561 8.42702C37.4486 8.83772 37.2453 9.37145 37.2453 10.0273C37.2453 10.6831 37.4486 11.2168 37.8561 11.6275C38.2636 12.0382 38.7462 12.2436 39.3048 12.2436C39.897 12.2436 40.3911 12.0373 40.7862 11.6238C41.0425 11.3546 41.191 10.98 41.2308 10.4999H39.3048V9.83302H41.8743C41.9008 9.97825 41.9123 10.1179 41.9123 10.252Z" fill="white"/>
<path d="M45.9871 7.93405H43.5723V9.6934H45.7502V10.3603H43.5723V12.1197H45.9871V12.8023H42.8908V7.25233H45.9871V7.93405Z" fill="white"/>
<path d="M48.8605 12.8023H48.179V7.93405H46.6976V7.25233H50.3419V7.93405H48.8605V12.8023Z" fill="white"/>
<path d="M52.9785 12.8023V7.25233H53.66V12.8023H52.9785Z" fill="white"/>
<path d="M56.6821 12.8023H56.0007V7.93405H54.5193V7.25233H58.1635V7.93405H56.6821V12.8023Z" fill="white"/>
<path d="M65.0621 12.0854C64.5406 12.646 63.8927 12.9263 63.1175 12.9263C62.3424 12.9263 61.6945 12.646 61.1739 12.0854C60.6524 11.5249 60.3925 10.8385 60.3925 10.0273C60.3925 9.21609 60.6524 8.52974 61.1739 7.96919C61.6945 7.40864 62.3424 7.12744 63.1175 7.12744C63.8883 7.12744 64.5353 7.40957 65.0586 7.97289C65.5818 8.53622 65.8434 9.22072 65.8434 10.0273C65.8434 10.8385 65.5827 11.5249 65.0621 12.0854ZM61.6768 11.6202C62.0692 12.0364 62.5492 12.2436 63.1175 12.2436C63.6859 12.2436 64.1667 12.0355 64.5583 11.6202C64.9507 11.2039 65.1478 10.673 65.1478 10.0273C65.1478 9.38167 64.9507 8.85072 64.5583 8.43447C64.1667 8.01822 63.6859 7.81102 63.1175 7.81102C62.5492 7.81102 62.0692 8.01914 61.6768 8.43447C61.2852 8.85072 61.0881 9.38167 61.0881 10.0273C61.0881 10.673 61.2852 11.2039 61.6768 11.6202Z" fill="white"/>
<path d="M66.7998 12.8023V7.25233H67.6289L70.2063 11.5693H70.2355L70.2063 10.5V7.25233H70.8878V12.8023H70.1763L67.4795 8.27538H67.4504L67.4795 9.34468V12.8023H66.7998Z" fill="white"/>
<path d="M41.9123 10.252C41.9123 11.0272 41.6931 11.6442 41.2538 12.1048C40.7553 12.6524 40.1047 12.9262 39.3057 12.9262C38.5402 12.9262 37.8888 12.6487 37.3541 12.0937C36.8184 11.5378 36.5506 10.8496 36.5506 10.0282C36.5506 9.20587 36.8184 8.51767 37.3541 7.96267C37.8888 7.40675 38.5402 7.12925 39.3057 7.12925C39.6858 7.12925 40.049 7.20695 40.3937 7.36142C40.7393 7.51682 41.016 7.7231 41.2228 7.98117L40.757 8.46957C40.4061 8.0302 39.9226 7.81097 39.3048 7.81097C38.7462 7.81097 38.2636 8.01632 37.8561 8.42702C37.4486 8.83772 37.2453 9.37145 37.2453 10.0273C37.2453 10.6831 37.4486 11.2168 37.8561 11.6275C38.2636 12.0382 38.7462 12.2436 39.3048 12.2436C39.897 12.2436 40.3911 12.0373 40.7862 11.6238C41.0425 11.3546 41.191 10.98 41.2308 10.4999H39.3048V9.83302H41.8743C41.9008 9.97825 41.9123 10.1179 41.9123 10.252Z" stroke="white" stroke-width="0.2" stroke-miterlimit="10"/>
<path d="M45.9871 7.93405H43.5723V9.6934H45.7502V10.3603H43.5723V12.1197H45.9871V12.8023H42.8908V7.25233H45.9871V7.93405Z" stroke="white" stroke-width="0.2" stroke-miterlimit="10"/>
<path d="M48.8605 12.8023H48.179V7.93405H46.6976V7.25233H50.3419V7.93405H48.8605V12.8023Z" stroke="white" stroke-width="0.2" stroke-miterlimit="10"/>
<path d="M52.9785 12.8023V7.25233H53.66V12.8023H52.9785Z" stroke="white" stroke-width="0.2" stroke-miterlimit="10"/>
<path d="M56.6821 12.8023H56.0007V7.93405H54.5193V7.25233H58.1635V7.93405H56.6821V12.8023Z" stroke="white" stroke-width="0.2" stroke-miterlimit="10"/>
<path d="M65.0621 12.0854C64.5406 12.646 63.8927 12.9263 63.1175 12.9263C62.3424 12.9263 61.6945 12.646 61.1739 12.0854C60.6524 11.5249 60.3925 10.8385 60.3925 10.0273C60.3925 9.21609 60.6524 8.52974 61.1739 7.96919C61.6945 7.40864 62.3424 7.12744 63.1175 7.12744C63.8883 7.12744 64.5353 7.40957 65.0586 7.97289C65.5818 8.53622 65.8434 9.22072 65.8434 10.0273C65.8434 10.8385 65.5827 11.5249 65.0621 12.0854ZM61.6768 11.6202C62.0692 12.0364 62.5492 12.2436 63.1175 12.2436C63.6859 12.2436 64.1667 12.0355 64.5583 11.6202C64.9507 11.2039 65.1478 10.673 65.1478 10.0273C65.1478 9.38167 64.9507 8.85072 64.5583 8.43447C64.1667 8.01822 63.6859 7.81102 63.1175 7.81102C62.5492 7.81102 62.0692 8.01914 61.6768 8.43447C61.2852 8.85072 61.0881 9.38167 61.0881 10.0273C61.0881 10.673 61.2852 11.2039 61.6768 11.6202Z" stroke="white" stroke-width="0.2" stroke-miterlimit="10"/>
<path d="M66.7998 12.8023V7.25233H67.6289L70.2063 11.5693H70.2355L70.2063 10.5V7.25233H70.8878V12.8023H70.1763L67.4795 8.27538H67.4504L67.4795 9.34468V12.8023H66.7998Z" stroke="white" stroke-width="0.2" stroke-miterlimit="10"/>
<g filter="url(#filter0_ii_362_145)">
<path d="M9.22424 7.75014C8.96703 8.03504 8.815 8.47719 8.815 9.04977V29.5071C8.815 30.0806 8.96703 30.5218 9.22424 30.8067L9.28965 30.8733L20.2401 19.4135V19.2784V19.1434L9.28965 7.68262L9.22424 7.75014Z" fill="url(#paint0_linear_362_145)"/>
<path d="M23.8898 23.2345L20.2402 19.4133V19.2783V19.1432L23.8906 15.323L23.9728 15.372L28.2977 17.9435C29.5325 18.678 29.5325 19.8795 28.2977 20.6149L23.9728 23.1864L23.8898 23.2345Z" fill="url(#paint1_linear_362_145)"/>
<g filter="url(#filter1_i_362_145)">
<path d="M23.9728 23.1855L20.2393 19.2783L9.22424 30.8066C9.63083 31.258 10.3035 31.3135 11.061 30.8639L23.9728 23.1855Z" fill="url(#paint2_linear_362_145)"/>
</g>
<path d="M23.9728 15.3712L11.061 7.69368C10.3035 7.24321 9.63083 7.29963 9.22424 7.75103L20.2401 19.2793L23.9728 15.3712Z" fill="url(#paint3_linear_362_145)"/>
</g>
<rect x="0.5" y="1.27734" width="118.325" height="36" rx="2.5" stroke="#A6A6A6"/>
<defs>
<filter id="filter0_ii_362_145" x="8.815" y="7.38281" width="20.4088" height="23.7917" filterUnits="userSpaceOnUse" color-interpolation-filters="sRGB">
<feFlood flood-opacity="0" result="BackgroundImageFix"/>
<feBlend mode="normal" in="SourceGraphic" in2="BackgroundImageFix" result="shape"/>
<feColorMatrix in="SourceAlpha" type="matrix" values="0 0 0 0 0 0 0 0 0 0 0 0 0 0 0 0 0 0 127 0" result="hardAlpha"/>
<feOffset dy="-0.15"/>
<feComposite in2="hardAlpha" operator="arithmetic" k2="-1" k3="1"/>
<feColorMatrix type="matrix" values="0 0 0 0 0 0 0 0 0 0 0 0 0 0 0 0 0 0 0.12 0"/>
<feBlend mode="normal" in2="shape" result="effect1_innerShadow_362_145"/>
<feColorMatrix in="SourceAlpha" type="matrix" values="0 0 0 0 0 0 0 0 0 0 0 0 0 0 0 0 0 0 127 0" result="hardAlpha"/>
<feOffset dy="0.15"/>
<feComposite in2="hardAlpha" operator="arithmetic" k2="-1" k3="1"/>
<feColorMatrix type="matrix" values="0 0 0 0 1 0 0 0 0 1 0 0 0 0 1 0 0 0 0.25 0"/>
<feBlend mode="normal" in2="effect1_innerShadow_362_145" result="effect2_innerShadow_362_145"/>
</filter>
<filter id="filter1_i_362_145" x="9.22424" y="19.2783" width="14.7486" height="11.8962" filterUnits="userSpaceOnUse" color-interpolation-filters="sRGB">
<feFlood flood-opacity="0" result="BackgroundImageFix"/>
<feBlend mode="normal" in="SourceGraphic" in2="BackgroundImageFix" result="shape"/>
<feColorMatrix in="SourceAlpha" type="matrix" values="0 0 0 0 0 0 0 0 0 0 0 0 0 0 0 0 0 0 127 0" result="hardAlpha"/>
<feOffset dy="-0.15"/>
<feComposite in2="hardAlpha" operator="arithmetic" k2="-1" k3="1"/>
<feColorMatrix type="matrix" values="0 0 0 0 0 0 0 0 0 0 0 0 0 0 0 0 0 0 0.08 0"/>
<feBlend mode="normal" in2="shape" result="effect1_innerShadow_362_145"/>
</filter>
<linearGradient id="paint0_linear_362_145" x1="19.2695" y1="8.83332" x2="3.76214" y2="23.6514" gradientUnits="userSpaceOnUse">
<stop stop-color="#00A0FF"/>
<stop offset="0.0066" stop-color="#00A1FF"/>
<stop offset="0.2601" stop-color="#00BEFF"/>
<stop offset="0.5122" stop-color="#00D2FF"/>
<stop offset="0.7604" stop-color="#00DFFF"/>
<stop offset="1" stop-color="#00E3FF"/>
</linearGradient>
<linearGradient id="paint1_linear_362_145" x1="29.9051" y1="19.2783" x2="8.51857" y2="19.2783" gradientUnits="userSpaceOnUse">
<stop stop-color="#FFE000"/>
<stop offset="0.4087" stop-color="#FFBD00"/>
<stop offset="0.7754" stop-color="#FFA500"/>
<stop offset="1" stop-color="#FF9C00"/>
</linearGradient>
<linearGradient id="paint2_linear_362_145" x1="21.9453" y1="21.4002" x2="0.915386" y2="41.4954" gradientUnits="userSpaceOnUse">
<stop stop-color="#FF3A44"/>
<stop offset="1" stop-color="#C31162"/>
</linearGradient>
<linearGradient id="paint3_linear_362_145" x1="6.45007" y1="0.940998" x2="15.8405" y2="9.91407" gradientUnits="userSpaceOnUse">
<stop stop-color="#32A071"/>
<stop offset="0.0685" stop-color="#2DA771"/>
<stop offset="0.4762" stop-color="#15CF74"/>
<stop offset="0.8009" stop-color="#06E775"/>
<stop offset="1" stop-color="#00F076"/>
</linearGradient>
</defs>
</svg>
