<svg width="34" height="34" viewBox="0 0 34 34" fill="none" xmlns="http://www.w3.org/2000/svg">
<path d="M5.66663 8.5C5.66663 10.8474 10.7411 12.75 17 12.75C23.2588 12.75 28.3333 10.8474 28.3333 8.5M5.66663 8.5C5.66663 6.15258 10.7411 4.25 17 4.25C23.2588 4.25 28.3333 6.15258 28.3333 8.5M5.66663 8.5V17M28.3333 8.5V16.2917M5.66663 17C5.66663 19.3474 10.7411 21.25 17 21.25M5.66663 17V25.5C5.66663 27.8474 10.7411 29.75 17 29.75M28.6166 28.6167L31.1666 31.1667M21.25 25.5C21.25 26.6272 21.6977 27.7082 22.4948 28.5052C23.2918 29.3022 24.3728 29.75 25.5 29.75C26.6271 29.75 27.7081 29.3022 28.5052 28.5052C29.3022 27.7082 29.75 26.6272 29.75 25.5C29.75 24.3728 29.3022 23.2918 28.5052 22.4948C27.7081 21.6978 26.6271 21.25 25.5 21.25C24.3728 21.25 23.2918 21.6978 22.4948 22.4948C21.6977 23.2918 21.25 24.3728 21.25 25.5Z" stroke="#005999" stroke-width="2.5" stroke-linecap="round" stroke-linejoin="round"/>
</svg>
