<svg width="44" height="44" viewBox="0 0 44 44" fill="none" xmlns="http://www.w3.org/2000/svg">
<g clip-path="url(#clip0_483_489)">
<path d="M28.6666 5.5V12.8333C28.6666 13.3196 28.8598 13.7859 29.2036 14.1297C29.5474 14.4735 30.0137 14.6667 30.5 14.6667H37.8333" stroke="#005999" stroke-width="2.5" stroke-linecap="round" stroke-linejoin="round"/>
<path d="M12.1666 14.6667V9.16667C12.1666 8.19421 12.5529 7.26158 13.2406 6.57394C13.9282 5.88631 14.8608 5.5 15.8333 5.5H28.6666L37.8333 14.6667V34.8333C37.8333 35.8058 37.447 36.7384 36.7594 37.4261C36.0717 38.1137 35.1391 38.5 34.1666 38.5H25" stroke="#005999" stroke-width="2.5" stroke-linecap="round" stroke-linejoin="round"/>
<rect x="7" y="20" width="4" height="10" stroke="#005999" stroke-width="2.5" stroke-linecap="round" stroke-linejoin="round"/>
<path d="M17.5 28V39" stroke="#005999" stroke-width="2.5" stroke-linecap="round" stroke-linejoin="round"/>
<rect x="20" y="22" width="6" height="5" transform="rotate(90 20 22)" stroke="#005999" stroke-width="2.5" stroke-linecap="round" stroke-linejoin="round"/>
<rect x="24" y="20" width="4" height="10" stroke="#005999" stroke-width="2.5" stroke-linecap="round" stroke-linejoin="round"/>
</g>
<defs>
<clipPath id="clip0_483_489">
<rect width="44" height="44" fill="white"/>
</clipPath>
</defs>
</svg>
