<svg width="44" height="44" viewBox="0 0 44 44" fill="none" xmlns="http://www.w3.org/2000/svg">
<g clip-path="url(#clip0_626_527)">
<path d="M25.5257 20.9932C25.3591 20.4116 25.0512 19.8802 24.6294 19.4464C24.2077 19.0127 23.6851 18.69 23.1083 18.5073C22.5316 18.3245 21.9186 18.2873 21.3239 18.3989C20.7293 18.5106 20.1716 18.7676 19.7004 19.1472C19.2293 19.5268 18.8593 20.017 18.6236 20.5742C18.388 21.1314 18.2938 21.7383 18.3496 22.3408C18.4054 22.9432 18.6094 23.5225 18.9434 24.0269C19.2775 24.5314 19.7311 24.9454 20.264 25.2319" stroke="#005999" stroke-width="2.5" stroke-linecap="round" stroke-linejoin="round"/>
<path d="M18.3333 32.5967C13.3357 31.4637 9.0585 27.9308 5.5 22C9.9 14.6667 15.4 11 22 11C28.0958 11 33.2512 14.1258 37.4697 20.3812" stroke="#005999" stroke-width="2.5" stroke-linecap="round" stroke-linejoin="round"/>
<path d="M32.9996 40.3326L39.1412 34.312C39.5179 33.9465 39.8175 33.5093 40.0223 33.0261C40.2272 32.5429 40.3332 32.0236 40.334 31.4988C40.3349 30.974 40.2306 30.4544 40.0273 29.9705C39.824 29.4867 39.5258 29.0485 39.1504 28.6818C38.3843 27.9326 37.3559 27.5122 36.2844 27.5101C35.2128 27.5081 34.1829 27.9245 33.4139 28.6708L33.0032 29.0741L32.5944 28.6708C31.8284 27.9221 30.8004 27.5021 29.7293 27.5C28.6582 27.498 27.6286 27.9141 26.8597 28.6598C26.483 29.0252 26.1833 29.4623 25.9782 29.9454C25.7732 30.4285 25.667 30.9478 25.666 31.4726C25.665 31.9974 25.7691 32.5171 25.9723 33.001C26.1754 33.4849 26.4734 33.9232 26.8487 34.29L32.9996 40.3326Z" stroke="#005999" stroke-width="2.5" stroke-linecap="round" stroke-linejoin="round"/>
</g>
<defs>
<clipPath id="clip0_626_527">
<rect width="44" height="44" fill="white"/>
</clipPath>
</defs>
</svg>
