<svg width="34" height="34" viewBox="0 0 34 34" fill="none" xmlns="http://www.w3.org/2000/svg">
<path d="M22.8505 4.00391H6.81738V30.0017H27.1829V8.33634L22.8505 4.00391Z" fill="#E8E8E8"/>
<path d="M22.0763 9.29297H11.7959V19.5733H22.0763V9.29297Z" fill="#007934"/>
<path d="M21.1841 10.1836H12.6875V18.6802H21.1841V10.1836Z" fill="white"/>
<path d="M20.5181 15.7852H17.896L18.6705 16.7524L17.896 17.7196H20.5181L19.7436 16.7524L20.5181 15.7852Z" fill="#007934"/>
<path d="M19.7682 12.3945H17.2587L16.7025 13.0892L16.1462 12.3945H13.6367L15.4477 14.6562L13.6367 16.9179H19.7682L17.9572 14.6562L19.7682 12.3945Z" fill="#007934"/>
<path d="M14.7123 12.7148H14.3491L17.459 16.5986H17.8221L14.7123 12.7148Z" fill="white"/>
<path d="M23.521 6.17016H6.81738V4.00391H22.8505L23.521 6.17016Z" fill="#007934"/>
<path d="M15.6629 27.4891H14.3769L13.5749 26.2031L12.7814 27.4891H11.5234L12.8883 25.3843L11.6051 23.375H12.8376L13.5805 24.647L14.2953 23.375H15.5645L14.2616 25.4715L15.6629 27.4891Z" fill="#A4A9AD"/>
<path d="M16.1245 27.4891V23.375H17.2361V26.5915H18.8204V27.4892H16.1245V27.4891Z" fill="#A4A9AD"/>
<path d="M22.1693 26.2402C22.1693 26.4954 22.1045 26.7218 21.975 26.9197C21.8456 27.1177 21.6589 27.2715 21.4151 27.3812C21.1711 27.491 20.8851 27.5459 20.5568 27.5459C20.2829 27.5459 20.0531 27.5266 19.8673 27.4881C19.6816 27.4497 19.4883 27.3827 19.2876 27.287V26.2964C19.4997 26.4052 19.72 26.4901 19.949 26.5511C20.1778 26.6121 20.3879 26.6426 20.5793 26.6426C20.7444 26.6426 20.8654 26.614 20.9423 26.5567C21.0192 26.4996 21.0577 26.4259 21.0577 26.3359C21.0577 26.2796 21.0422 26.2303 21.0113 26.1881C20.9804 26.1459 20.9306 26.1032 20.8622 26.0601C20.7936 26.017 20.6112 25.9288 20.3148 25.7956C20.0465 25.6736 19.8453 25.5555 19.7112 25.441C19.5771 25.3266 19.4776 25.1952 19.4129 25.047C19.3481 24.8988 19.3158 24.7234 19.3158 24.5207C19.3158 24.1418 19.4536 23.8463 19.7294 23.6344C20.0052 23.4224 20.3841 23.3164 20.8663 23.3164C21.2921 23.3164 21.7264 23.4148 22.1692 23.6119L21.8287 24.4701C21.4441 24.2939 21.1121 24.2056 20.8325 24.2056C20.688 24.2056 20.583 24.2309 20.5173 24.2816C20.4515 24.3323 20.4189 24.3951 20.4189 24.4701C20.4189 24.5508 20.4605 24.6231 20.5441 24.6868C20.6276 24.7506 20.854 24.867 21.2237 25.0358C21.5783 25.1952 21.8245 25.3665 21.9623 25.5494C22.1003 25.7322 22.1693 25.9626 22.1693 26.2402Z" fill="#A4A9AD"/>
<path d="M22.8501 8.33634H27.1825L22.8501 4.00391V8.33634Z" fill="#D1D3D3"/>
</svg>
